<?xml version="1.0" encoding="UTF-8"?><svg id="_レイヤー_2" xmlns="http://www.w3.org/2000/svg" viewBox="0 0 568.02 1797.18"><defs><style>.cls-1{fill:none;}.cls-2{fill:#010100;}.cls-3{fill:#ef8975;}.cls-4{fill:#fff;}.cls-5{fill:#ffcdc2;}.cls-6{fill:#656770;}.cls-7{fill:#bababa;}.cls-8{fill:#cef73c;}.cls-9{fill:#1c1c1c;}.cls-10{fill:#5b7f73;}</style></defs><g id="_レイヤー_1-2"><g><path class="cls-1" d="m129.07,151.33c-.04,1.11-.1,2.18-.15,3.23-.28,5.67-.38,9.29.91,11.57-.18-4.88-.29-9.79-.35-14.51-.14-.09-.27-.18-.41-.28Z"/><path class="cls-10" d="m412.68,900.49c5.08-10.72,5.32-21.98,5.53-32.35.03-1.41.06-2.78.1-4.12-2.9-.32-6.32-2.1-10.84-4.88,1.84,12.32,3.63,26.2,5.22,41.35Z"/><path class="cls-10" d="m89.15,852.07c-1.94,3.24-2.58,5.83-2.58,7.82,0,.27,0,.58,0,.93-.06,4.99-.19,17.83,8.37,32.17-.53-20.25-.81-35.34-.96-44.07-1.89,1.19-3.51,2.26-4.83,3.16Z"/><path class="cls-8" d="m505.84,455.15c16.61,38.05,40.81,98.42,39.71,124.84-.69,16.66-8.38,37.17-21.49,58.45l34.45-6.33,1.14-2.09-30.69-179.02-23.13,4.16Z"/><path class="cls-2" d="m535.5,441.69l-32.97,5.93c-1.87-4.22-3.6-8.05-5.12-11.39-22.87-50.23-53.14-108.38-64.19-117.22-13.76-11.01-39.68-23.75-52.74-29.85.39-5.63.52-10.54.57-13.34,5.22-2.88,17.55-10.91,20.13-23.59,1.81-8.89-1.48-18-9.77-27.08-10.39-11.36-23.92-18.15-36.74-22.2,2.25,3.13,4.02,6.63,5.23,10.47,9.26,3.77,18.38,9.23,25.6,17.14,6.46,7.07,9.1,13.82,7.84,20.06-2.39,11.84-17.78,19.05-17.93,19.12l-2.34,1.07v2.57c0,.27-.05,25.8-4.12,38.59-5.43,2.65-24.55,11.9-34.42,15.57l2.79,7.5c11.91-4.43,35.64-16.12,36.64-16.62l1.42-.7.56-1.48c1.85-4.92,3.03-11.77,3.78-18.56,13.38,6.35,36.37,17.9,48.49,27.6,7.5,6,34.16,53.35,61.91,114.29,30.56,67.12,48.29,119.49,47.44,140.12-.99,23.89-17.9,56.85-45.25,88.16-26.66,30.53-57.46,52.5-80.39,57.33l-3.27.69.09,3.34c.27,9.58,2.33,31.55,4.5,54.8,2.72,29.08,5.8,62.03,5.29,70.68-.03.54-.08.94-.14,1.24-2.29-.71-7.25-3.87-11.69-6.69-16.59-10.55-44.35-28.21-86.87-31.84-30.75-2.63-54.32-3.55-75.93-3.55s-40.74.9-63.27,1.94c-4.88.23-9.93.46-15.19.69-35.75,1.59-66.31,19.27-79.05,27.78-.47-19.78-2-72.42-5.3-92.1l-.22-1.32-.97-.92c-.79-.75-1.72-1.61-2.76-2.59-17.1-15.98-69.16-64.61-69.16-115.9,0-22.28,15.91-237.59,33.6-268.25,10.7-18.54,44.61-37.06,69.27-48.62,3.74,3.26,7.83,6.91,12.21,10.99.72-3.49,1.38-6.55,1.96-9.08-7.19-6.56-13.49-11.91-18.7-16.34-13.84-11.76-19.92-17.18-18.96-22.45.66-3.63,7.54-15.05,17.88-26.52-.8-.66-1.57-1.28-2.3-1.85-1.43-1.12-2.58-2.41-3.45-3.79-11.3,12.36-18.97,25.06-20.01,30.74-1.82,10.03,6.51,17.11,21.65,29.98.97.83,1.99,1.69,3.04,2.59-25.21,12.06-58.22,30.76-69.52,50.36C15.44,392.47,0,607.57,0,631.39s9.86,48.88,29.32,75.43c15.61,21.3,33.69,38.2,42.38,46.32.62.58,1.2,1.12,1.74,1.62,3.76,24.69,5.13,96.43,5.15,97.17l.11,6.03c-.07.65-.11,1.29-.11,1.93v.84c-.2,17.57,5.44,33.15,16.75,46.41,2.13,75.01,7.19,204.33,18.81,341.9,18.02,213.34,39.2,321.25,39.41,322.31l.61,3.06,3.12.15c2.94.14,8.66.39,15.85.55,2.5.06,5.19.1,8,.13,13.79.14,30.54-.17,43.68-1.87,2.82-.37,5.47-.8,7.9-1.3,5.5-1.14,9.81-2.66,12.15-4.67l1.47-1.26-.07-1.93c-.05-1.35-5.32-137.36-15.03-320.44-9.89-186.47-3.26-249.75-1.35-263.12,15.99,6.88,21.79,22.3,25.04,35.32,7.92,31.67,11.5,68.53,16.46,119.55,3.21,33.04,6.85,70.48,12.57,116.91,15.16,122.94,22.66,351.72,22.73,354.02l.07,2.06,1.71,1.14c2,1.33,7.21,4.81,34.02,4.81.88,0,1.78,0,2.7-.01,2.51-.02,5.21-.07,8.08-.16,4.8-.14,10.1-.36,16-.7,12.07-.69,23.76-1.69,32.55-2.52,3.04-.29,5.73-.56,7.97-.79,4.38-.45,7.02-.75,7.1-.76l3.54-.41v-367.7c0-79.42-.74-163.44-2.2-249.72-.48-28.13-2.08-54.47-4.25-78.15,11.62-15.23,11.98-32.19,12.24-45.27.06-2.89.11-5.62.28-8.14.08-1.23.05-2.47-.07-3.71.06-.53.09-.99.11-1.31.54-9.26-2.43-41.1-5.31-71.9-1.94-20.76-3.78-40.48-4.33-51.05,24.37-6.45,54.52-28.27,81.45-59.11,7.33-8.39,13.93-16.92,19.73-25.41l43.78-8.04,1.88-.35,4.29-7.89-32.52-189.71ZM86.57,860.82c0-.35,0-.67,0-.93,0-1.99.64-4.57,2.58-7.82,1.32-.9,2.94-1.97,4.83-3.16.14,8.73.43,23.83.96,44.07-8.56-14.33-8.43-27.18-8.37-32.17Zm325.85,741.17c-33.27,3.67-84.76,6.97-97.83,1.87-.84-24.64-8.34-235.82-22.71-352.39-5.71-46.33-9.35-83.72-12.55-116.71-4.99-51.36-8.6-88.47-16.66-120.71-5.94-23.74-17.02-37.28-34.87-42.62l-4.48-1.34-.84,6.17c-.78,3.81-10.47,56.54.75,267.96,9.03,170.15,14.21,299.62,14.94,318.07-10.04,4.95-49.29,5.62-77.35,4.44-3.53-18.95-22.4-125.31-38.7-318.35-16.57-196.14-19.78-375.48-20.2-404.16,14.91-8.33,38.22-18.63,63.91-19.77,5.26-.23,10.31-.47,15.2-.69,46.73-2.16,77.6-3.59,138.15,1.59,37.36,3.2,62.98,17.87,79.27,28.1,5.11,32.05,10.8,79.93,11.79,138.41,1.46,86.24,2.2,170.22,2.2,249.59v360.56Zm5.79-733.86c-.21,10.38-.44,21.64-5.53,32.35-1.59-15.15-3.38-29.03-5.22-41.35,4.52,2.78,7.95,4.56,10.84,4.88-.04,1.34-.07,2.71-.1,4.12Zm140.31-236.03l-34.45,6.33c13.11-21.27,20.8-41.79,21.49-58.45,1.09-26.42-23.1-86.78-39.71-124.84l23.13-4.16,30.69,179.02-1.14,2.09Z"/><path class="cls-9" d="m323.56,1692.06c-26.22,15.78-42.27,35.3-44.04,53.55-.86,8.88,1.89,16.91,7.54,22.02,8.6,7.78,45.18,11.28,65.61-3.19,15.28-10.82,58.04-46.71,60.61-66.62,1.75-13.59-1.29-26.83-4.52-40.84-1.87-8.14-3.81-16.57-4.89-25.42-.93-7.71-1.59-14.61-2.06-20.45-8.78.83-20.48,1.82-32.55,2.52-5.91.34-11.21.56-16,.7.47,23.92-3.3,61.86-29.7,77.75Zm68.85,17.07c.12-.11,12.34-11.36,12.34-20.66,0-1.1.9-2,2-2s2,.9,2,2c0,11.07-13.09,23.11-13.65,23.62-.38.35-.86.52-1.34.52-.54,0-1.08-.22-1.48-.65-.74-.82-.68-2.08.13-2.83Z"/><path d="m403.87,1631.54c1.07,8.86,3.01,17.28,4.89,25.42,3.23,14.02,6.27,27.26,4.52,40.84-2.57,19.91-45.32,55.8-60.61,66.62-20.44,14.47-57.01,10.98-65.61,3.19-5.65-5.12-8.4-13.14-7.54-22.02,1.77-18.25,17.83-37.77,44.04-53.55,26.4-15.89,30.18-53.83,29.7-77.75-2.87.08-5.57.14-8.08.16.4,22.22-2.93,57.01-25.74,70.74-38.89,23.41-46.69,47.41-47.88,59.63-.35,3.65-.21,7.2.38,10.57-.95,1.62-1.8,3.16-2.53,4.6-2.35,4.62-1.21,11.3-.59,14.89.09.55.17.99.21,1.29.35,3.23,2.18,7.99,8.93,12.3,8.11,5.18,22.24,8.69,37.43,8.69,9.26,0,18.9-1.31,27.82-4.34,14.33-4.87,33.29-16.78,49.46-31.08,10.55-9.33,28.91-27.68,33.35-45.8,6.86-28.02.51-34.83-1.6-36.25l-.62-.42-2.69-.61c-.94-7.8-2.71-15.54-4.55-23.51-1.83-7.94-3.72-16.16-4.74-24.59-.92-7.61-1.57-14.47-2.03-20.28-2.24.23-4.93.5-7.97.79.47,5.85,1.12,12.75,2.06,20.45Z"/><path class="cls-9" d="m150.24,1624c-14.81,9.45-27.43,13.54-38.56,17.14-16.12,5.23-28.86,9.35-43.07,27.27-5.41,6.82-6.76,17.81-3.15,25.58,1.75,3.76,5.39,8.3,12.83,8.53,27.97.84,117.08-19.37,140.22-31.83l2.13-1.14c10.18-5.47,16.32-8.77,18.65-12.34,1.93-2.95,1.73-7.17-.8-16.72-5.13-19.37-8.97-35.03-13.68-67.1-13.14,1.7-29.89,2-43.68,1.87.3,9.87-2.85,30.85-30.89,48.75Zm-56.54,35.04c-12.03,4.71-20.28,18.46-21.29,29.04-.1,1.03-.97,1.81-1.99,1.81-.06,0-.13,0-.19,0-1.1-.11-1.91-1.08-1.8-2.18,1.12-11.62,9.84-26.91,23.82-32.38,1.03-.4,2.19.1,2.59,1.13.4,1.03-.1,2.19-1.13,2.59Z"/><path d="m238.49,1640.49c2.53,9.55,2.73,13.77.8,16.72-2.33,3.57-8.47,6.87-18.65,12.34l-2.13,1.14c-23.14,12.46-112.25,32.67-140.22,31.83-7.44-.23-11.08-4.76-12.83-8.53-3.61-7.77-2.25-18.77,3.15-25.58,14.21-17.91,26.95-22.04,43.07-27.27,11.13-3.61,23.75-7.7,38.56-17.14,28.05-17.89,31.19-38.88,30.89-48.75-2.81-.03-5.49-.07-8-.13.34,7.63-1.86,25.97-27.2,42.13-13.95,8.9-25.52,12.65-36.72,16.28-16.72,5.42-31.16,10.1-46.87,29.91-4.78,6.03-7.15,14.26-6.84,22.18-3.2,3.88-5.01,7.7-5.46,11.54-.88,7.47,3.61,13.01,6.58,16.67l.7.86.66.37c4.49,2.55,12.86,3.63,23.43,3.63,20.13,0,48.21-3.92,72.51-9.02,18.75-3.94,81.45-18.56,101.03-41.12l.76-.88.17-1.15c1.85-12.21-.66-21.31-7.44-27.04-.77-.65-1.58-1.22-2.42-1.76-4.97-18.8-8.72-34.28-13.33-65.64-2.42.5-5.07.93-7.9,1.3,4.71,32.08,8.55,47.73,13.68,67.1Z"/><path class="cls-6" d="m398.43,853.44c-16.29-10.23-41.9-24.9-79.27-28.1-60.55-5.18-91.42-3.75-138.15-1.59-4.89.23-9.94.46-15.2.69-25.69,1.14-49,11.44-63.91,19.77.42,28.68,3.63,208.02,20.2,404.16,16.3,193.04,35.17,299.4,38.7,318.35,28.07,1.18,67.31.51,77.35-4.44-.73-18.45-5.91-147.92-14.94-318.07-11.22-211.41-1.53-264.15-.75-267.96l.84-6.17,4.48,1.34c17.86,5.34,28.94,18.88,34.87,42.62,8.06,32.24,11.67,69.35,16.66,120.71,3.21,32.99,6.84,70.38,12.55,116.71,14.37,116.58,21.87,327.75,22.71,352.39,13.07,5.1,64.56,1.79,97.83-1.87v-360.56c0-79.37-.74-163.34-2.2-249.59-.99-58.48-6.68-106.36-11.79-138.41Zm-188.68,98.17c-.18.08-.51.22-.94.25l-.29.02c-.55.04-1.11.08-1.71.08-.04,0-.08,0-.12,0-.44,0-.88-.04-1.32-.07-.4-.03-.79-.06-1.19-.06-1.23.02-2.46-.1-3.65-.21-1.1-.11-2.14-.21-3.17-.2-1.21.01-2.36-.13-3.47-.28l-.82-.11c-.55-.08-1.05-.17-1.54-.25-.97-.16-1.89-.32-2.81-.42-.4-.04-.83-.07-1.27-.1-1.13-.08-2.3-.17-3.49-.38-.77-.13-1.54-.31-2.28-.49-.46-.11-.93-.22-1.4-.32l-.96-.22c-1.23-.29-2.39-.56-3.56-.64-1.19-.09-2.29-.44-3.3-.81-.45-.15-.93-.34-1.4-.53-.6-.24-1.17-.46-1.72-.62-.4-.1-.84-.2-1.28-.3-.65-.14-1.32-.29-1.99-.49-1.3-.41-2.41-.81-3.42-1.25l-.65-.28c-1.87-.8-3.8-1.62-5.66-2.62-.81-.4-1.6-.9-2.37-1.38-.32-.21-.65-.41-.97-.61-.9-.51-1.83-1.09-2.76-1.67l-1.1-.68c-.4-.26-.72-.48-1.05-.7-.81-.54-1.65-1.09-2.48-1.69l-1.85-1.31c-1.29-.89-1.8-2.28-1.38-3.81.07-.25.25-.94.95-1.39.11-.07.22-.15.33-.23.34-.25.76-.55,1.27-.75.91-.35,1.68-.06,2.02.07l.56.13.39.39,1.25,1.03c1.53,1.09,3.17,2.15,4.89,3.17.46.29.86.57,1.26.85.47.33.95.66,1.44.96,1.04.66,2.13,1.21,3.15,1.72,1.82.97,3.76,1.87,6.35,2.93.62.23,1.35.43,2.12.65.64.18,1.28.37,1.91.58l3.87,1.22c1.23.39,2.5.66,3.47.85,2.35.47,4.25.89,5.99,1.33.8.22,1.61.35,2.47.48.43.07.86.14,1.29.21l6.87.9,6.22.5c.18.01.38.05.58.09l.11.02c.64.07,1.34.1,2.04.11,1,0,2.22.07,3.44.62,1.23.09,2.11.75,2.76,1.24.17.13.33.25.5.36.65.41.88,1.01.99,1.3l1.02,2.03-2.14.77Zm17.44-13.99c-.04.21-.03.45-.01.67.12,1.49-.59,2.71-1.04,3.97-.07.19-.33.3-.5.43-.06-.2-.15-.41-.16-.62-.11-1.07-.21-2.15-.3-2.97-.1-1.27-.12-2.56-.29-3.82-.43-3.4-.72-6.93-1.9-9.98-.69-1.84-1.27-3.32-2.19-5.21-1.02-2.2-1.36-4.69-1.61-7.04-.22-2.48-.39-4.95-.33-7.4.06-1.95.31-3.87.47-5.77.21-2.5.42-4.97.3-7.46-.06-1.43.07-2.85.15-4.26.07-1.71.26-3.44.12-5.09-.14-1.54-.64-3.03-.99-4.57-.44-1.74-.79-3.18-1.19-4.76-.82-3.17-1.82-6.29-2.82-9.42-.48-1.6-1.1-3.65-1.59-5.31-.69-2.08-1.43-4.14-2.19-6.18-.69-1.85-1.4-3.68-2.14-5.5-.41-1.01-.83-2.03-1.3-3-.38-.8-.51-1.61-.07-2.58.05-.1.1-.26.17-.28.49-.17,1.01-.45,1.47-.42.31.02.54.51.81.79.02.03.03.07.05.11l.75,1.92-.03.02c1.26,3.05,2.51,6.1,3.67,9.24.56,1.55.99,3.19,1.48,4.78.62,1.92,1.19,3.67,1.78,5.47,1.09,3.5,2.09,7.04,3.01,10.66.54,2.21,1.22,4.38,1.58,6.78.32,2.34.29,4.58.25,6.8-.03,2.06-.12,4.1-.19,6.12-.12,3.22-.32,6.38-.68,9.47-.23,2.05-.22,4.13-.2,6.14,0,3.5.37,7,1.62,9.25,1.64,2.92,2.67,6.37,3.35,9.7.07.33.08.68.14,1.01.21,1.22.36,2.45.54,3.66.24,1.55.35,3.12.03,4.67Zm50.7,3.54c-1.77,1.14-3.52,2.34-5.21,3.6-1.56,1.11-3.04,2.31-4.51,3.51-.81.69-1.63,1.38-2.37,2.13-.62.6-1.25.97-2.12.78-.09-.02-.23-.03-.26-.09-.23-.46-.53-.94-.56-1.45-.02-.33.36-.74.57-1.1.02-.03.06-.06.09-.08l1.55-1.32.02.02c2.46-2.16,5.03-4.15,7.67-6.06,1.3-.93,2.72-1.68,4.06-2.55,1.61-1.01,3.13-1.96,4.67-2.94,3-1.8,6-3.58,9.05-5.25,1.85-1.03,3.57-2.29,5.45-3.28,1.8-.94,3.54-1.85,5.32-2.78,1.63-.83,3.24-1.66,4.95-2.53,2.59-1.42,5.24-2.7,7.99-3.76,1.83-.69,3.54-1.67,5.36-2.4,3.17-1.31,6.31-2.69,9.51-3.94l8.61-3.27c.28-.11.58-.17.87-.27,1.05-.34,2.11-.66,3.14-1.03,1.33-.49,2.66-.9,4.08-.92.2,0,.4-.07.59-.13,1.27-.45,2.5-.06,3.73.02.19.01.36.23.53.36-.17.11-.33.26-.51.34-.86.37-1.72.75-2.61,1.06-1.15.38-2.25.74-3.43,1.12-3.08,1.09-6.26,1.89-9.22,3.31-1.74.81-3.59,1.36-5.4,2.02-1.97.75-3.93,1.5-5.87,2.33-2.01.9-3.98,1.87-5.95,2.85-1.59.75-3.24,1.37-4.85,2.08-2.12.9-4.17,1.94-6.11,3.19-1.11.72-2.36,1.25-3.58,1.81-1.47.71-2.99,1.33-4.43,2.11-1.38.76-2.67,1.67-3.99,2.52-1.35.84-2.75,1.61-4.15,2.38-2.74,1.59-5.47,3.21-8.14,4.89-1.49.95-3.08,1.74-4.55,2.73Zm86.75-7.1c-.83.12-1.66.25-2.49.32-1.09.05-2.11.1-3.21.15-2.9.2-5.83.21-8.71.75-1.68.32-3.41.31-5.12.55-1.86.23-3.74.41-5.59.7-1.94.28-3.83.89-5.76,1.24-1.53.32-3.11.42-4.65.74-2.01.4-4.02.81-5.97,1.49-1.12.4-2.3.63-3.47.87-1.43.3-2.89.46-4.3.83-1.35.39-2.64.98-3.98,1.4-1.47.43-2.74.79-4.1,1.19-2.73.76-5.43,1.61-8.13,2.45-1.4.41-3.11.9-4.56,1.32-1.81.56-3.57,1.24-5.34,1.89-1.59.62-3.18,1.24-4.74,1.94-.88.37-1.74.78-2.59,1.22-.68.36-1.35.48-2.07.01-.08-.05-.19-.11-.21-.17-.08-.5-.24-1.04-.14-1.52.06-.31.49-.55.75-.82.03-.02.06-.04.1-.05l1.66-.71v.03c2.67-1.19,5.33-2.34,8.05-3.33,1.34-.5,2.73-.84,4.09-1.24,1.63-.52,3.15-.99,4.7-1.48,2.98-.94,5.99-1.72,8.98-2.59,1.7-.53,3.69-1.15,5.42-1.69,1.71-.52,3.48-.83,5.21-1.26,1.58-.39,3.15-.78,4.83-1.2,2.56-.6,5.11-1.29,7.74-1.57,1.74-.2,3.45-.61,5.17-.92,3.02-.54,6.07-.9,9.11-1.35,2.72-.37,5.46-.59,8.2-.89.25,0,.57-.02.81-.03.99-.06,1.93-.13,2.96-.19,1.26-.11,2.51-.14,3.74.22.17.05.36.04.54.03,1.2-.09,2.17.62,3.21,1.03.16.06.25.32.38.49-.17.06-.34.16-.52.19Z"/><path class="cls-7" d="m344.38,261.17c-2,1.72-4.39,3.64-7.11,5.72.25.51.2,1.15-.19,1.62-16.55,19.91-101.09,32.34-128.88,36.42-3.42.5-5.89.87-6.98,1.07-.54.1-1.15.15-1.84.15-5.68,0-16.34-3.2-29.45-7.13-15-4.5-32-9.6-44.84-10.77-.82-.08-1.43-.8-1.36-1.63.08-.83.81-1.42,1.63-1.36,3.81.35,7.96,1.03,12.29,1.93-13.35-18.45-24.57-29.57-32.4-36.06-10.34,11.47-17.22,22.89-17.88,26.52-.96,5.27,5.12,10.69,18.96,22.45,5.21,4.42,11.5,9.78,18.7,16.34,1.2-5.32,1.99-8.35,1.99-8.35l.3.34c1.39-3.2,4.87-6.02,9.41-7.17,6.68-1.71,13.09.82,14.33,5.65,1.23,4.83-3.18,10.12-9.86,11.83-3.2.82-6.32.65-8.86-.26-.38,1.21-.75,2.45-1.1,3.73,3.54,3.35,7.26,6.96,11.15,10.89,2.61.56,9.3,1.98,16.41,3.26l1.32,1.95,4,7.07c-11.25-1.77-23.91-4.56-24.6-4.72l-1.15-.26-.83-.84c-2.94-2.99-5.78-5.79-8.53-8.44-7.47,32.82-9.89,77.76-9.89,77.76,0,0-.3,6.72-3.05,6.72s-3.05-7.29-3.05-7.29c.77-32.38,6.2-63.98,10.07-82.78-4.38-4.08-8.47-7.72-12.21-10.99-24.65,11.56-58.57,30.07-69.27,48.62-17.69,30.66-33.6,245.97-33.6,268.25,0,51.3,52.05,99.92,69.16,115.9,1.05.98,1.97,1.84,2.76,2.59l.97.92.22,1.32c3.3,19.68,4.83,72.32,5.3,92.1,12.74-8.51,43.3-26.19,79.05-27.78,5.26-.23,10.3-.47,15.19-.69,22.52-1.04,41.94-1.94,63.27-1.94s45.19.92,75.93,3.55c42.52,3.64,70.28,21.29,86.87,31.84,4.44,2.82,9.4,5.98,11.69,6.69.05-.3.1-.7.14-1.24.51-8.65-2.57-41.61-5.29-70.68-2.17-23.25-4.22-45.22-4.5-54.8l-.09-3.34,3.27-.69c22.92-4.83,53.72-26.8,80.39-57.33,27.34-31.31,44.26-64.27,45.25-88.16.85-20.62-16.88-73-47.44-140.12-27.75-60.94-54.41-108.3-61.91-114.29-12.12-9.7-35.12-21.24-48.49-27.6-.76,6.79-1.94,13.64-3.78,18.56l-.56,1.48-1.42.7c-1,.5-24.73,12.19-36.64,16.62l-2.79-7.5c9.87-3.67,28.98-12.92,34.42-15.57,4.06-12.78,4.12-38.32,4.12-38.59v-2.57s2.34-1.07,2.34-1.07c.15-.07,15.54-7.28,17.93-19.12,1.26-6.24-1.38-12.99-7.84-20.06-7.23-7.9-16.34-13.36-25.6-17.14.25.78.48,1.57.68,2.38,3.97,15.94-2.24,33.34-16.19,45.39Zm-241.95,273.45l-.34,1.3c-1.7,6.55-3.32,13.14-4.82,19.75-1.37,6.13-2.65,12.29-3.82,18.46-1.83,9.81-3.56,19.62-5.28,29.47-1.21,6.5-1.98,13.12-2.93,19.69-1.5,11.53-2.88,23.09-3.86,34.68-.45,5.18-.93,10.36-1.21,15.56-.32,5.19-.71,10.38-.85,15.57-.06,1.01-.11,2.05-.17,3.07-.14,3.73-.42,7.46-.38,11.2-.02,4.79-.11,9.52-.59,14.11-.06.63-.08,1.36-.08,2.04-.03,4.58-.84,8.13-1.35,12.06-.08.61-.34.92-.52,1.37-.05-.67-.12-1.34-.13-2.02-.02-3.22-.04-6.44-.07-9.6l.17-12.34c.03-2.8.06-5.59.09-8.38l.37-8.38c.22-5.59.5-11.17.79-16.77.22-6.54.94-13.14,1.55-19.7.64-7.18,1.58-14.34,2.36-21.5.9-7.49,1.67-14.98,2.77-22.44.82-5.97,1.98-11.9,2.98-17.85,1.38-7.77,2.83-15.52,4.13-23.3.77-4.47,1.77-9.02,2.82-13.49,1.24-5.49,2.72-10.91,4.04-16.37.62-2.59,1.26-5.21,1.9-7.87-.27-2.51-.54-5.02-.8-7.48-.44-2.68-.88-5.34-1.32-8.02l-1.66-7.99c-2.41-10.56-5.32-21.03-8.52-31.41-1.8-5.8-3.48-11.62-5.42-17.39-2.26-6.89-4.66-13.75-7.13-20.57-2.22-6.19-4.52-12.34-6.88-18.47-1.31-3.44-2.67-6.87-4.07-10.26-1.14-2.78-1.91-5.18-1.86-7.01,0-.19,0-.51.08-.46.68.39,1.34.53,2.11,1.42.51.58,1.22,2.25,1.82,3.44.06.15.1.26.15.38l2.46,6.35-.03.02c4,10.22,7.88,20.49,11.54,30.84,1.81,5.1,3.41,10.25,5.07,15.4,1.9,5.94,3.87,11.87,5.62,17.87,3.42,11.36,6.56,22.82,8.87,34.5.81,3.52,1.25,7.13,1.92,10.69.24,1.8.37,3.63.56,5.44l.27,2.85c-.17.92-.26,1.03-.37,1.56Zm-3.53-64.75c-.07,0-.13.01-.2.01-.74,0-1.38-.55-1.48-1.3-.11-.82.47-1.58,1.29-1.69,29.54-3.93,68.84-3.3,69.23-3.3.83.01,1.49.7,1.47,1.53-.01.83-.7,1.48-1.53,1.47-.39,0-39.47-.63-68.78,3.28Zm86.97,335.31c.19.81-.31,1.61-1.11,1.81-.12.03-.23.04-.35.04-.68,0-1.29-.46-1.46-1.15-2.38-10.01-23.07-98.19-16.94-110.89,4.81-9.98,8.86-158.33,10.81-229.62.5-18.18.89-32.54,1.2-41.8l.05-.34,17.01-62.98-8.59-43.46c-.16-.81.37-1.6,1.18-1.76.81-.16,1.6.37,1.76,1.18l8.73,44.15-17.15,63.49c-.31,9.25-.7,23.55-1.19,41.61-2.91,106.58-6.41,221.1-11.11,230.84-4.79,9.94,10.76,81.98,17.16,108.9Zm97.65-505.4c3.18-4.12,10.38-3.88,16.08.53s7.74,11.32,4.55,15.43c-.23.3-.49.57-.76.82,2.85,35.42,2,78.88,1.41,87.97-.61,9.51-8.32,19.02-7.92.41.76-35.88-1.84-74.61-2.75-86.71-2.05-.53-4.14-1.53-6.06-3.02-5.7-4.41-7.74-11.32-4.55-15.43Zm-72.81,190.69c.5-28.94.94-53.93,1.39-67.02l.05-.33,17.18-65.11-5.8-27.96c-.17-.81.35-1.61,1.16-1.77.81-.17,1.6.35,1.77,1.16l5.94,28.65-17.32,65.63c-.45,13.11-.88,38-1.39,66.8-.16,9.43-.34,19.33-.52,29.46-.01.82-.68,1.47-1.5,1.47h-.03c-.83-.02-1.49-.7-1.47-1.53.18-10.13.36-20.03.52-29.46Zm8.31,308.66c-.12.03-.24.04-.35.04-.68,0-1.29-.46-1.46-1.15-2.08-8.68-20.15-85.14-14-97.29.37-.74,1.28-1.03,2.02-.66.74.37,1.04,1.28.66,2.02-4.78,9.45,8.66,71.96,14.24,95.24.19.81-.3,1.62-1.11,1.81Zm247.73-247.36c1.63.06,3.25.03,4.88.27,1.51.18,3.03.24,4.52.54,2.4.32,4.76.93,7,1.85,1.45.68,3.02,1.08,4.46,1.79,2.58,1.11,5.03,2.52,7.4,4.02,2.11,1.35,4.14,2.84,6.07,4.45.19.16.35.35.53.52.67.61,1.3,1.18,2,1.82.88.75,1.65,1.6,2.11,2.69.06.15.18.28.29.4.77.79.77,1.94.99,2.94.03.16-.13.38-.2.56-.14-.08-.29-.15-.41-.26-.57-.55-1.15-1.11-1.59-1.54-.65-.69-1.27-1.41-1.96-2.06-1.9-1.73-3.67-3.66-5.89-5.02-1.31-.76-2.44-1.8-3.74-2.6-1.37-.93-2.79-1.81-4.27-2.56-1.58-.72-3.21-1.33-4.84-1.88-1.3-.46-2.53-1.09-3.87-1.45-1.71-.58-3.48-.94-5.28-1.01-1.02-.09-2.07-.18-3.09-.35-1.25-.22-2.52-.44-3.81-.43-1.24-.05-2.46.21-3.68.35-1.24.08-2.48.16-3.71.32-2.46.22-4.87.76-7.26,1.34-1.31.39-2.69.61-3.98,1.11-1.56.54-3.07,1.22-4.51,2-1.33.68-2.58,1.5-3.79,2.36-.66.5-1.32,1.02-1.9,1.59-.48.47-.99.71-1.78.48-.08-.02-.21-.04-.25-.1-.27-.43-.59-.88-.68-1.35-.05-.32.27-.65.43-.97.02-.03.05-.05.07-.07.44-.36.87-.73,1.32-1.06l.02.02c2.11-1.69,4.39-3.14,6.8-4.3,1.19-.58,2.46-.93,3.7-1.35,1.44-.46,2.87-.94,4.33-1.28,2.76-.73,5.6-1.05,8.41-1.34,1.71-.16,3.43-.39,5.15-.45Zm-62.64-104.92c2-1.78,3.97-3.63,6.1-5.25,4.18-3.31,8.47-6.47,12.97-9.29,2.48-1.64,5.11-2.99,7.67-4.49,3.09-1.71,6.18-3.43,9.32-5.04,2.84-1.46,5.71-2.87,8.61-4.22,1.62-.75,3.22-1.49,4.88-2.26,1.33-.62,2.54-.92,3.58-.54.11.04.28.09.27.16-.1.56-.06,1.14-.41,1.7-.22.37-1.01.72-1.54,1.09-.05.03-.12.06-.18.08l-2.99,1.27-.02-.03c-4.78,2.17-9.46,4.55-14.1,7.03-2.26,1.25-4.62,2.34-6.86,3.63-2.6,1.47-5.16,3.03-7.65,4.67-4.79,3.06-9.4,6.39-13.77,10.01-2.62,2.25-5.08,4.65-7.44,7.15-2.36,2.23-4.39,4.75-6.53,7.17l-2.64,3.63-1.25,1.76c-.37.58-.28.48-.37.66-.04.13-.21.46.11.34.22-.11.29-.19.49-.31,1.95-1.23,3.87-2.43,5.89-3.69,2.73-1.67,5.38-3.53,8.1-5.25,4.78-3.03,9.65-5.93,14.64-8.63,4.47-2.42,9.03-4.67,13.7-6.69.45-.18.95-.37,1.4-.54,1.71-.67,3.39-1.32,5.12-1.99,2.19-.85,4.4-1.57,6.68-1.82.31-.04.65-.13.97-.23,2.15-.65,4.02-.38,5.97-.36.3,0,.51.22.76.34-.3.13-.59.29-.91.38-1.5.46-3,.92-4.4,1.35-1.88.57-3.79,1.09-5.64,1.77-5.03,1.83-10.1,3.64-14.84,6.19-3.02,1.54-5.66,2.89-8.45,4.31-3.05,1.63-6.1,3.3-9.04,5.12-3.08,1.91-6.03,4.02-9.05,6.03-2.42,1.6-4.91,3.11-7.37,4.68l-2.67,1.66c-1.3.78-2.82,1.6-3.78,1.65-.5.03-.88.04-1.34-.27-.47-.44-.45-.83-.49-1.28-.09-.86.56-2.32,1.44-3.81.86-1.56,1.4-2.21,2.1-3.19l2.06-2.71c1.68-2.2,3.74-4.05,5.5-6.16,1.86-1.87,3.53-3.93,5.43-5.78Zm-47.72-.73c.07-.21.15-.47.3-.74l.27-.49c.47-.85.95-1.73,1.47-2.58l2.42-3.75c1.81-3.11,3.9-6.7,5.58-10.36.6-1.59,1.33-3.13,2.04-4.62.3-.63.6-1.26.89-1.89,1.03-2.13,1.98-4.42,2.93-7.06,1.04-2.95,1.82-5.38,2.45-7.63.4-1.3.84-2.56,1.27-3.77.29-.81.57-1.63.85-2.45.85-2.66,1.54-5.37,2.03-8.04.21-1.11.5-2.19.78-3.24.15-.55.29-1.09.43-1.64.22-.84.45-1.65.69-2.46.33-1.15.65-2.24.9-3.35.24-1.03.38-2.08.52-3.18.1-.82.21-1.67.37-2.51l1.25-6.46c.65-3.56,1.33-7.25,1.9-10.88.15-.83.3-1.64.45-2.44.25-1.32.51-2.68.71-4.01.36-2.25.68-4.63,1.03-7.73.23-1.81.4-3.65.56-5.42l.18-2.05c.08-1.13.16-2.3.19-3.43.01-.61.05-2.52,1.62-3.7.79-.63,1.47-.45,1.81-.29.12.06.22.11.32.15.44.2,1.05.47,1.55,1.05.47.54.55,1.22.61,1.76.01.12.03.25.05.36.05.26.03.47.02.56l-.35,3.89c-.27,3.67-.61,7.13-1.02,10.54-.13,1.21-.36,2.41-.58,3.57-.14.76-.29,1.52-.4,2.28l-1.09,6.71c-.41,2.64-.93,5.31-1.44,7.88-.31,1.6-.63,3.2-.92,4.81-.3,1.44-.54,2.89-.77,4.29-.19,1.15-.38,2.29-.6,3.44-.31,1.51-.68,3-1.04,4.43-.24.94-.47,1.87-.69,2.81-.5,2.26-1.09,4.55-1.65,6.7-.93,3.82-1.82,7.26-3.14,10.63-.41,1.07-.75,2.17-1.1,3.33-.35,1.16-.72,2.37-1.18,3.55-.46,1.18-.9,2.37-1.34,3.56-1.02,2.77-2.08,5.64-3.38,8.39-1.6,3.71-3.1,7.08-4.95,10.4l-1.08,1.91c-.48.87-.96,1.74-1.4,2.62-1.02,1.87-2.13,3.35-3.41,4.57-.02.02-.08.09-.21.3-.8,1.3-1.87,2.06-2.81,2.74-.3.21-.59.43-.88.66-.52.42-1.08.44-1.36.45l-2.51.39.88-2.56Zm.52,13.17c2.2,1.78,4.4,3.55,6.55,5.29,2.79,2.29,5.21,4.98,7.87,7.41.06.06.12.12.19.18l1.98-.35,1.46,1.4c.77.74,19.15,18.42,34.86,42.83,7.82,12.15,22.4,47.17,23.01,48.65l.46,1.11-.23,1.18c-.32,1.62-7.94,40.04-25.77,60.69-17.03,19.72-37.25,47.29-37.46,47.57l-.89,1.22-3.19.7c-2.28,2.86.55-.68-2.81,3.39-2.05,2.48-4.1,4.95-6.16,7.44-1.67,2.03-3.26,3.58-4.78,4.21-.16.07-.41.19-.41.1-.01-.73-.2-1.34.13-2.32.22-.65,1.23-1.86,1.88-2.82.06-.09.15-.19.23-.27l3.86-4.49.03.02c1.62-1.94,2.71-3.24,3.55-4.26l-13.8,3.04c.61,1.86.96,3.58,1.29,5.25.15.77.31,1.55.49,2.33.17.73.05,1.3-.01,1.64,0,.05-.02.09-.03.14l-.76,6.27-3.2-5.89c-.2-.36-.4-.72-.57-1.11l-.75-1.69c-.72-1.62-1.46-3.31-2.14-5.01l-.24-.63-15.48,3.41c1.22,3.09,2.61,6.41,4.14,9.66,1.48,3.12,2.84,6.38,4.15,9.52.46,1.05.93,2.14,1.4,3.23,1.17,2.71,2.38,5.52,3.65,8.21,1.11,2.2,2.32,4.47,3.5,6.66.71,1.33,1.42,2.65,2.12,3.98l5.76,10.86,5.95,10.63,5.09,8.57c1.72-.75,4.22-1.87,6.67-2.97,2.35-1.05,4.61-2.07,6.29-2.81l-2.53-4.29-4.08-7.17c-2.28-4.1-4.59-8.4-7.06-13.17l-3.79-7.42c-1.37-2.68-1.92-4.64-1.78-6.35.02-.36.07-1.26.93-1.85l.81-.55.96.29c.14.05.26.08.38.11.55.14,1.38.35,2.25,1.06.59.48,1.04,1.23,1.55,2.09.16.27.33.55.48.79.1.15.18.31.25.47l3,6.17c3.27,6.41,6.84,12.95,10.86,19.93l4.16,7.32,3.42,5.73-3.62,1.53c-2.01.85-6.14,2.72-10.14,4.53-4.02,1.82-8.18,3.7-10.23,4.57l-1.61.68-2.89-4.86c-4.36-7.24-8.67-14.89-13.19-23.37-.8-1.51-1.61-3.01-2.43-4.52-1.74-3.22-3.54-6.55-5.19-9.92-1.57-3.05-3.02-6.24-4.42-9.33-.7-1.53-1.39-3.07-2.1-4.59-.7-1.62-1.39-3.18-2.08-4.74-1.21-2.74-2.46-5.57-3.63-8.39-1.3-3.04-2.49-5.96-3.62-8.85l-15.07,3.32-14-8.05-32.62-179.87,5.06-11.67,105.66-18.4c-1.38-1.4-2.72-2.81-3.95-4.31-.37-.41-.79-.88-1.25-1.25-3.05-2.54-4.91-5.11-7.25-7.69-.36-.4-.41-.78-.6-1.17.48.34.98.64,1.45,1.02Zm-20.35,6.07c.75.34,1.09,1.23.75,1.99-.25.55-.8.88-1.37.88-.21,0-.42-.04-.62-.13-7.09-3.22-88.19-3.91-107.96-3.21-.82.06-1.52-.62-1.55-1.45s.62-1.52,1.45-1.55c17.9-.64,101.19-.21,109.31,3.47Z"/><path class="cls-2" d="m137.53,339.54l.83.84,1.15.26c.7.15,13.35,2.95,24.6,4.72l-4-7.07-1.32-1.95c-7.11-1.28-13.8-2.7-16.41-3.26-3.89-3.93-7.6-7.54-11.15-10.89-.8,2.83-1.55,5.82-2.25,8.91,2.75,2.65,5.59,5.45,8.53,8.44Z"/><path class="cls-4" d="m302.01,193.08c-3.4,3.6-7.65,6.92-11.78,6.92-2.59,0-4.75-.36-6.51-.86-.1.68-.22,1.35-.34,2.01,2.06-.35,4.16-.44,6.23-.26,1.76.18,3.56.59,5.51,1.25,1.98.6,3.95,1.44,5.79,2.47,3.65,2.04,6.73,4.88,8.91,8.22,1.24,1.88,2.6,4.16,3.26,6.81.58,2.11.79,4.51.63,7.09-.05,1.25-.16,2.24-.34,3.18-.15,1.19-.43,2.3-.65,3.13-.87,3.45-2.22,6.55-4.01,9.21-1.19,1.94-2.33,3.67-3.43,5.21-1.88,2.56-3.99,4.91-6.03,7.17l-1.02,1.14c-1.86,2.13-3.77,4.46-5.81,7.12l-.95,1.15c-.58.74-1.14,1.43-1.65,2.16-.86,1.23-1.85,2.52-3.2,3.56-.02.03-.04.05-.06.08-.81,1.18-1.92,1.81-2.81,2.31-.27.15-.54.31-.8.48-.67.45-1.37.41-1.67.39l-3.01.16,1.07-2.94c.06-.2.16-.5.35-.82l.09-.15c.47-.8.96-1.63,1.5-2.43l2.25-3.08c.98-1.41,2.08-2.79,3.14-4.11,1.02-1.27,2.07-2.59,3.01-3.93,1.03-1.47,2.23-2.77,3.39-4.03l1.35-1.46c1.27-1.35,2.47-2.64,3.62-3.98,1.12-1.47,2.24-3.12,3.61-5.34.23-.37.46-.72.69-1.08.73-1.13,1.41-2.19,1.96-3.3,1.12-2.18,1.77-4.08,1.99-5.84.07-.6.18-1.22.29-1.84.12-.68.24-1.32.29-1.93l.07-.63c.06-.54.12-1.06.1-1.52v-.08s0-.08,0-.08c.04-.71,0-1.31-.11-1.84l-.02-.12c-.15-1.03-.64-2.06-1.15-3.15l-.24-.51c-.69-1.39-1.36-2.5-2.12-3.46-1.63-2.06-3.84-3.86-6.38-5.2l-.32-.16c-1.38-.68-2.68-1.33-4.04-1.7-1.82-.51-3.7-.76-5.6-.76h-.03c-1.68.04-3.36.3-4.95.78-.15.05-.29.1-.43.16-3.44,12.12-9.53,22.3-16.84,31.35-.37,3.29-.78,6.48-1.17,9.51-1.12,8.75-2.52,19.65-.96,22.1l1.33,2.1-1.29,2.12c-4.07,6.68-7.88,12.99-11.46,18.97,19.19-3.59,35.2-7.29,48.01-11.07,16.82-11.24,31.81-21.63,39.88-28.6,11.66-10.07,16.9-24.4,13.66-37.41-2.82-11.33-11.6-19.47-24.09-22.32-7.45-1.7-15.57-2.35-23.6-2.35-1.04,0-2.08.01-3.11.04Z"/><path class="cls-4" d="m107.89,242.97c15.05,11.76,29.11,28.82,41.47,47,7.19,1.89,14.52,4.09,21.44,6.17,6.82,2.05,13.44,4.03,18.83,5.36-1.45-7.77-2.97-15.21-4.45-22.1-17.14-5.91-35.68-36.72-45.69-61.13-.43.13-.86.28-1.26.46-5.29,2.34-18.77,8.52-29.82,15.25-1.85,1.12-2.86,2.63-2.77,4.14l.08,1.46c.06,1.13.84,2.33,2.18,3.38Z"/><path d="m102.96,249.27c.73.57,1.5,1.19,2.3,1.85,7.83,6.49,19.05,17.62,32.4,36.06-4.33-.9-8.49-1.59-12.29-1.93-.82-.06-1.55.53-1.63,1.36-.07.83.53,1.55,1.36,1.63,12.84,1.17,29.84,6.27,44.84,10.77,13.11,3.93,23.76,7.13,29.45,7.13.69,0,1.3-.05,1.84-.15,1.09-.2,3.56-.56,6.98-1.07,27.78-4.09,112.32-16.52,128.88-36.42.39-.47.44-1.11.19-1.62,2.71-2.07,5.11-3.99,7.11-5.72,13.96-12.05,20.16-29.45,16.19-45.39-.2-.81-.43-1.6-.68-2.38-1.21-3.83-2.98-7.33-5.23-10.47-5.46-7.59-13.78-12.97-24.16-15.34-6.62-1.51-14.05-2.35-22.22-2.52,4.43-6.71,7.33-13.75,7.87-19.25.4-4.14.3-8.76-.65-12.78-.78-3.32-2.14-6.23-4.25-8.14,6.46-9.98,14.03-22.44,15.54-27.87.96-3.44-4.05-22.75-29.88-71.25-6.61-12.42-15.86-17.91-28.65-25.5-2.81-1.67-5.71-3.39-8.79-5.31-6.22-3.87-25.49-6.74-46.87-6.96-22.3-.23-41.1,2.31-47.91,6.47-38.33,23.46-44.5,46.12-48.58,61.11-.53,1.96-1.04,3.82-1.58,5.54-1.7,5.45.59,19.68,5.71,35.41,3.15,9.69,6.49,17.3,9.16,22.21,0,.9,0,1.83,0,2.77-2.56.75-4.53,1.79-5.77,3.24-.94,1.1-1.46,2.42-1.5,4.03-.04,1.91-.13,3.7-.22,5.42-.37,7.44-.66,13.31,3.56,17.74,1.24,1.31,2.81,2.38,4.78,3.26.5,8.31,1.27,16.08,2.44,22.05.74,3.77,2.08,8.41,3.91,13.53-.56.19-1.11.39-1.64.63-5.43,2.41-19.28,8.76-30.74,15.73-4.38,2.67-6.85,6.94-6.6,11.43l.08,1.46c.11,1.9.73,3.74,1.79,5.43.87,1.39,2.02,2.67,3.45,3.79Zm25.96-94.72c.05-1.05.1-2.12.15-3.23.03-.69.05-1.4.07-2.13.09-.09.19-.17.31-.25,0,.88.02,1.77.03,2.66.06,4.72.17,9.63.35,14.51-1.28-2.27-1.19-5.9-.91-11.57Zm78.85,147.42c-3.45.51-5.94.87-7.09,1.08-.68.12-1.58.12-2.64.04-1.43-7.84-2.93-15.37-4.42-22.4,2.37.16,4.66.26,6.86.26,15.53,0,27.44-4.5,44.54-20.39,3.52-3.27,7.03-6.62,10.43-10.11-1.3,10.17-2.17,17.98-.64,22.96-5.05,8.31-9.71,16.05-14,23.27-10.22,1.79-21.23,3.56-33.05,5.29Zm120.95-106.57c12.49,2.85,21.27,10.99,24.09,22.32,3.24,13-2,27.33-13.66,37.41-8.07,6.97-23.06,17.36-39.88,28.6-12.81,3.78-28.83,7.47-48.01,11.07,3.58-5.98,7.39-12.29,11.46-18.97l1.29-2.12-1.33-2.1c-1.55-2.45-.16-13.35.96-22.1.39-3.03.8-6.22,1.17-9.51,7.31-9.05,13.4-19.23,16.84-31.35.14-.05.28-.1.43-.16,1.59-.48,3.27-.74,4.95-.78h.03c1.9,0,3.78.25,5.6.76,1.36.37,2.67,1.01,4.04,1.7l.32.16c2.55,1.34,4.75,3.14,6.38,5.2.75.95,1.43,2.06,2.12,3.46l.24.51c.52,1.09,1,2.12,1.15,3.15l.02.12c.11.53.15,1.13.11,1.84v.08s0,.08,0,.08c.01.46-.04.97-.1,1.52l-.07.63c-.05.61-.16,1.25-.29,1.93-.11.62-.22,1.24-.29,1.84-.22,1.77-.87,3.67-1.99,5.84-.55,1.11-1.23,2.17-1.96,3.3-.23.35-.46.71-.69,1.08-1.37,2.22-2.49,3.87-3.61,5.34-1.15,1.35-2.35,2.63-3.62,3.98l-1.35,1.46c-1.16,1.26-2.36,2.56-3.39,4.03-.93,1.34-1.99,2.65-3.01,3.93-1.06,1.33-2.16,2.7-3.14,4.11l-2.25,3.08c-.55.81-1.03,1.63-1.5,2.43l-.09.15c-.19.32-.28.62-.35.82l-1.07,2.94,3.01-.16c.3.02.99.06,1.67-.39.26-.17.53-.32.8-.48.89-.5,1.99-1.13,2.81-2.31.02-.03.04-.05.06-.08,1.35-1.04,2.33-2.32,3.2-3.56.51-.72,1.06-1.42,1.65-2.16l.95-1.15c2.04-2.65,3.95-4.99,5.81-7.12l1.02-1.14c2.04-2.27,4.15-4.62,6.03-7.17,1.1-1.55,2.24-3.28,3.43-5.21,1.79-2.66,3.14-5.77,4.01-9.21.22-.83.5-1.94.65-3.13.18-.94.29-1.93.34-3.18.16-2.58-.06-4.98-.63-7.09-.66-2.65-2.02-4.94-3.26-6.81-2.18-3.34-5.26-6.18-8.91-8.22-1.84-1.03-3.81-1.87-5.79-2.47-1.95-.66-3.75-1.06-5.51-1.25-2.07-.18-4.17-.09-6.23.26.12-.67.24-1.34.34-2.01,1.76.51,3.92.86,6.51.86,4.13,0,8.38-3.32,11.78-6.92,1.03-.02,2.07-.04,3.11-.04,8.03,0,16.15.65,23.6,2.35Zm-39.85-29.06c3.33.36,5.16-2.42,7.69-6.26,2-3.04,4.75-7.21,7.69-8.95.26-.16,1.15-.65,1.5-.43,1.52.97,3.21,6.49,2.45,14.34-1.06,10.88-14.06,26.85-17.96,26.96-4.55,0-6.63-1.51-6.99-1.8l-6.02-7.07-.79,9.58c-2.28,27.72-19.45,45.82-36.85,61.98-18.81,17.48-29.99,19.53-49.45,17.68-7.68-.73-18.74-11.9-29.58-29.88-9.46-15.7-17.69-34.93-20-46.77-.97-4.97-1.65-11.36-2.13-18.31,4.33.66,9.75.97,16.6.97,12.24,0,20.85-3.28,25.56-9.74,3.85-5.27,4.09-11.35,3.66-15.36,3-.09,6.04-.11,8.72-.07,1.11.02,2.17.04,3.13.09.56.02,1.09.05,1.58.09,0,.26,0,.53,0,.82.04,7.57.12,25.31,35.17,25.31,20.06,0,30.76-2.28,35.76-7.63,3.02-3.23,3.61-7.02,3.57-10.89,4.6-.1,8.53-.97,11.83-2.2.17,1.81.41,3.26.76,4.16,1.09,2.78,3.23,3.29,4.1,3.39Zm-150.85,3.9c-.36-7.69-.52-15.71-.57-23.05,6.64-.58,15.28-.43,19.11-.37,1.89.03,3.61.06,5.04.06,9.09,0,13.08,1.28,14.56,2.26l.58,1.87c.02.08,2.37,7.87-1.82,13.56-3.34,4.53-10.03,6.83-19.88,6.83-7.32,0-12.92-.38-17.01-1.15Zm66.62-18.22c-.01-.24.22-.63.62-1.05,2.95-3.05,12.9-6.16,28.07-6.16.91,0,1.85.01,2.8.04,3.86.09,7.33.1,10.39.11,16.89.04,18.25.6,18.27,7.51,0,1.73.11,3.36.22,4.94.32,4.83.41,7.67-1.5,9.71-3.41,3.64-13.44,5.41-30.65,5.41-28.08,0-28.13-11.48-28.17-18.34,0-.81,0-1.54-.05-2.17Zm-66.98-29.77c2.44-.54,6.29-1.25,10.85-1.63,17.3-1.44,28.75-19.45,38.85-35.34,5.74-9.02,11.67-18.35,16.5-20.1,11.16-4.02,22.52,4.76,30.81,11.17,1.19.92,2.29,1.77,3.31,2.52,6.84,5.04,9.54,9.06,18.49,22.39,1.18,1.76,2.47,3.67,3.88,5.77,9.13,13.53,19.67,21.84,24.02,24.94-.3,5.07-.66,12.5-.65,18.92-3.89.68-7.92,1.08-11.94,1.03-.28-13.9-10.24-13.94-25.24-13.98-3.03,0-6.46-.01-10.24-.11-16.93-.43-30.75,2.75-36.07,8.26-.15.16-.28.32-.41.47-4.96-.54-12.26-.41-16.87-.25-3.15-5.72-13.45-6.45-21.35-6.45-1.39,0-3.07-.03-4.92-.06-7.21-.12-13.8-.14-19.24.35.02-7.84.14-14.33.23-17.92Zm-29.26,111.75c11.06-6.73,24.54-12.91,29.82-15.25.4-.18.83-.33,1.26-.46,10.01,24.4,28.55,55.21,45.69,61.13,1.49,6.89,3,14.34,4.45,22.1-5.4-1.33-12.01-3.32-18.83-5.36-6.92-2.08-14.26-4.28-21.44-6.17-12.36-18.18-26.42-35.24-41.47-47-1.34-1.05-2.12-2.25-2.18-3.38l-.08-1.46c-.09-1.51.92-3.02,2.77-4.14Z"/><path d="m101.98,524.77c-.67-3.56-1.11-7.17-1.92-10.69-2.32-11.68-5.45-23.14-8.87-34.5-1.76-6-3.72-11.93-5.62-17.87-1.67-5.15-3.27-10.3-5.07-15.4-3.66-10.35-7.53-20.62-11.54-30.84l.03-.02-2.46-6.35c-.05-.12-.09-.23-.15-.38-.6-1.19-1.31-2.87-1.82-3.44-.77-.88-1.43-1.03-2.11-1.42-.09-.05-.08.27-.08.46-.05,1.83.72,4.23,1.86,7.01,1.39,3.4,2.75,6.83,4.07,10.26,2.36,6.13,4.67,12.29,6.88,18.47,2.47,6.83,4.87,13.68,7.13,20.57,1.93,5.76,3.62,11.59,5.42,17.39,3.2,10.39,6.11,20.86,8.52,31.41l1.66,7.99c.44,2.67.88,5.33,1.32,8.02.26,2.46.53,4.97.8,7.48-.64,2.66-1.27,5.28-1.9,7.87-1.32,5.46-2.8,10.88-4.04,16.37-1.05,4.48-2.05,9.03-2.82,13.49-1.3,7.78-2.75,15.52-4.13,23.3-.99,5.95-2.16,11.88-2.98,17.85-1.1,7.46-1.88,14.95-2.77,22.44-.78,7.16-1.72,14.32-2.36,21.5-.61,6.56-1.34,13.16-1.55,19.7-.29,5.6-.57,11.18-.79,16.77l-.37,8.38c-.03,2.79-.06,5.58-.09,8.38l-.17,12.34c.02,3.17.04,6.38.07,9.6,0,.68.09,1.35.13,2.02.18-.45.44-.76.52-1.37.51-3.94,1.32-7.48,1.35-12.06,0-.68.02-1.4.08-2.04.49-4.59.58-9.32.59-14.11-.04-3.74.24-7.47.38-11.2.06-1.02.11-2.05.17-3.07.14-5.2.53-10.38.85-15.57.28-5.19.75-10.37,1.21-15.56.98-11.59,2.36-23.15,3.86-34.68.95-6.57,1.71-13.18,2.93-19.69,1.72-9.85,3.45-19.66,5.28-29.47,1.18-6.17,2.45-12.33,3.82-18.46,1.5-6.61,3.12-13.2,4.82-19.75l.34-1.3c.12-.53.21-.64.37-1.56l-.27-2.85c-.19-1.81-.32-3.64-.56-5.44Z"/><path d="m363.3,467.12c.46.37.89.83,1.25,1.25,1.23,1.5,2.57,2.91,3.95,4.31l3-.52c-.06-.06-.12-.12-.19-.18-2.66-2.43-5.08-5.12-7.87-7.41-2.15-1.74-4.35-3.51-6.55-5.29-.47-.37-.97-.68-1.45-1.02.19.39.24.77.6,1.17,2.34,2.58,4.2,5.15,7.25,7.69Z"/><path d="m357.72,682.4l-.03-.02-3.86,4.49c-.08.09-.17.18-.23.27-.66.96-1.67,2.17-1.88,2.82-.33.98-.14,1.59-.13,2.32,0,.09.25-.03.41-.1,1.52-.62,3.11-2.17,4.78-4.21,2.06-2.49,4.11-4.96,6.16-7.44,3.36-4.07.53-.53,2.81-3.39l-4.48.99c-.84,1.02-1.93,2.32-3.55,4.26Z"/><path d="m116.05,415.58c2.74,0,3.05-6.72,3.05-6.72,0,0,2.42-44.94,9.89-77.76.7-3.09,1.45-6.08,2.25-8.91.36-1.28.73-2.52,1.1-3.73,2.54.91,5.66,1.07,8.86.26,6.68-1.71,11.09-7,9.86-11.83-1.23-4.83-7.65-7.35-14.33-5.65-4.54,1.16-8.02,3.98-9.41,7.17l-.3-.34s-.79,3.03-1.99,8.35c-.57,2.53-1.24,5.58-1.96,9.08-3.87,18.79-9.3,50.4-10.07,82.78,0,0,.31,7.29,3.05,7.29Z"/><path class="cls-4" d="m359.37,447.83c.28-.23.58-.44.88-.66.94-.68,2.01-1.45,2.81-2.74.13-.21.19-.28.21-.3,1.28-1.22,2.39-2.7,3.41-4.57.45-.88.93-1.75,1.4-2.62l1.08-1.91c1.85-3.32,3.35-6.69,4.95-10.4,1.3-2.75,2.36-5.62,3.38-8.39.44-1.19.88-2.38,1.34-3.56.46-1.18.82-2.38,1.18-3.55.35-1.16.69-2.26,1.1-3.33,1.32-3.37,2.2-6.81,3.14-10.63.56-2.15,1.15-4.44,1.65-6.7.22-.94.45-1.88.69-2.81.36-1.44.74-2.92,1.04-4.43.22-1.14.41-2.29.6-3.44.23-1.4.48-2.85.77-4.29.29-1.61.6-3.21.92-4.81.5-2.58,1.02-5.24,1.44-7.88l1.09-6.71c.12-.76.26-1.52.4-2.28.22-1.16.45-2.36.58-3.57.41-3.41.75-6.87,1.02-10.54l.35-3.89c0-.09.03-.3-.02-.56-.02-.11-.03-.24-.05-.36-.06-.54-.14-1.22-.61-1.76-.5-.57-1.1-.85-1.55-1.05-.1-.04-.2-.09-.32-.15-.34-.16-1.01-.34-1.81.29-1.57,1.18-1.61,3.08-1.62,3.7-.03,1.13-.11,2.3-.19,3.43l-.18,2.05c-.16,1.78-.33,3.61-.56,5.42-.35,3.1-.67,5.48-1.03,7.73-.2,1.33-.46,2.7-.71,4.01-.15.8-.31,1.61-.45,2.44-.57,3.63-1.24,7.31-1.9,10.88l-1.25,6.46c-.16.85-.26,1.69-.37,2.51-.14,1.11-.27,2.16-.52,3.18-.25,1.11-.57,2.2-.9,3.35-.24.81-.47,1.62-.69,2.46-.13.55-.28,1.09-.43,1.64-.28,1.05-.57,2.14-.78,3.24-.49,2.67-1.17,5.38-2.03,8.04-.27.82-.56,1.63-.85,2.45-.43,1.21-.87,2.47-1.27,3.77-.63,2.26-1.41,4.68-2.45,7.63-.95,2.63-1.9,4.93-2.93,7.06-.29.63-.59,1.26-.89,1.89-.71,1.49-1.44,3.03-2.04,4.62-1.68,3.66-3.77,7.25-5.58,10.36l-2.42,3.75c-.52.85-1,1.73-1.47,2.58l-.27.49c-.15.27-.23.53-.3.74l-.88,2.56,2.51-.39c.27,0,.84-.03,1.36-.45Z"/><path d="m391.13,461.49c-.7.97-1.24,1.63-2.1,3.19-.88,1.49-1.54,2.95-1.44,3.81.05.45.02.84.49,1.28.46.31.84.3,1.34.27.96-.05,2.48-.87,3.78-1.65l2.67-1.66c2.47-1.57,4.96-3.08,7.37-4.68,3.02-2.01,5.97-4.12,9.05-6.03,2.95-1.82,5.99-3.49,9.04-5.12,2.79-1.42,5.42-2.77,8.45-4.31,4.75-2.55,9.82-4.36,14.84-6.19,1.85-.68,3.76-1.2,5.64-1.77,1.4-.43,2.9-.89,4.4-1.35.31-.09.61-.25.91-.38-.25-.12-.46-.34-.76-.34-1.95-.02-3.83-.3-5.97.36-.32.1-.66.2-.97.23-2.28.25-4.49.96-6.68,1.82-1.73.67-3.41,1.33-5.12,1.99-.45.18-.95.37-1.4.54-4.68,2.02-9.24,4.27-13.7,6.69-4.99,2.7-9.86,5.61-14.64,8.63-2.72,1.73-5.37,3.59-8.1,5.25-2.02,1.27-3.94,2.47-5.89,3.69-.2.13-.27.2-.49.31-.32.13-.15-.21-.11-.34.09-.18,0-.08.37-.66l1.25-1.76,2.64-3.63c2.14-2.42,4.17-4.94,6.53-7.17,2.36-2.5,4.82-4.9,7.44-7.15,4.37-3.62,8.98-6.95,13.77-10.01,2.5-1.64,5.05-3.2,7.65-4.67,2.24-1.3,4.6-2.38,6.86-3.63,4.63-2.47,9.32-4.86,14.1-7.03l.02.03,2.99-1.27c.06-.02.13-.05.18-.08.53-.37,1.32-.72,1.54-1.09.34-.56.3-1.13.41-1.7.01-.07-.16-.12-.27-.16-1.03-.38-2.25-.08-3.58.54-1.66.77-3.26,1.51-4.88,2.26-2.89,1.35-5.76,2.76-8.61,4.22-3.15,1.61-6.23,3.32-9.32,5.04-2.55,1.5-5.19,2.85-7.67,4.49-4.5,2.82-8.79,5.98-12.97,9.29-2.13,1.63-4.1,3.47-6.1,5.25-1.9,1.85-3.57,3.91-5.43,5.78-1.76,2.11-3.82,3.96-5.5,6.16l-2.06,2.71Z"/><path d="m448.86,554.82c-1.24.42-2.52.77-3.7,1.35-2.41,1.16-4.69,2.6-6.8,4.3l-.02-.02c-.45.33-.88.7-1.32,1.06-.02.02-.06.04-.07.07-.16.32-.48.65-.43.97.08.47.41.92.68,1.35.04.06.16.08.25.1.79.23,1.31,0,1.78-.48.58-.58,1.24-1.1,1.9-1.59,1.21-.86,2.46-1.69,3.79-2.36,1.45-.78,2.96-1.46,4.51-2,1.29-.5,2.67-.72,3.98-1.11,2.39-.58,4.8-1.11,7.26-1.34,1.23-.16,2.47-.24,3.71-.32,1.22-.14,2.45-.4,3.68-.35,1.29,0,2.56.21,3.81.43,1.02.18,2.07.26,3.09.35,1.8.07,3.58.43,5.28,1.01,1.33.36,2.57.99,3.87,1.45,1.63.55,3.26,1.16,4.84,1.88,1.48.75,2.9,1.62,4.27,2.56,1.3.8,2.42,1.84,3.74,2.6,2.22,1.37,3.98,3.29,5.89,5.02.69.65,1.31,1.37,1.96,2.06.44.43,1.02.99,1.59,1.54.11.11.27.17.41.26.07-.18.24-.4.2-.56-.22-1-.22-2.15-.99-2.94-.11-.12-.23-.25-.29-.4-.46-1.09-1.23-1.94-2.11-2.69-.7-.64-1.33-1.21-2-1.82-.18-.16-.34-.36-.53-.52-1.93-1.6-3.96-3.09-6.07-4.45-2.37-1.5-4.81-2.91-7.4-4.02-1.44-.71-3.01-1.11-4.46-1.79-2.24-.92-4.6-1.53-7-1.85-1.49-.3-3.02-.37-4.52-.54-1.63-.24-3.25-.21-4.88-.27-1.73.06-3.44.29-5.15.45-2.82.28-5.65.61-8.41,1.34-1.46.34-2.89.82-4.33,1.28Z"/><path d="m341.79,683.12c.67,1.7,1.42,3.38,2.14,5.01l.75,1.69c.17.38.37.75.57,1.11l3.2,5.89.76-6.27s.02-.09.03-.14c.07-.34.18-.91.01-1.64-.18-.79-.34-1.56-.49-2.33-.33-1.67-.69-3.39-1.29-5.25l-5.92,1.3.24.63Z"/><path d="m323.09,696.2c1.17,2.82,2.42,5.65,3.63,8.39.69,1.56,1.38,3.12,2.08,4.74.71,1.52,1.41,3.06,2.1,4.59,1.4,3.09,2.85,6.28,4.42,9.33,1.64,3.37,3.44,6.7,5.19,9.92.81,1.5,1.63,3,2.43,4.52,4.51,8.48,8.83,16.13,13.19,23.37l2.89,4.86,1.61-.68c2.05-.87,6.21-2.75,10.23-4.57,4-1.81,8.13-3.68,10.14-4.53l3.62-1.53-3.42-5.73-4.16-7.32c-4.02-6.98-7.59-13.52-10.86-19.93l-3-6.17c-.07-.16-.16-.33-.25-.47-.16-.24-.32-.51-.48-.79-.51-.86-.96-1.61-1.55-2.09-.87-.71-1.7-.92-2.25-1.06-.12-.03-.24-.06-.38-.11l-.96-.29-.81.55c-.85.58-.9,1.49-.93,1.85-.14,1.71.4,3.67,1.78,6.35l3.79,7.42c2.47,4.77,4.77,9.07,7.06,13.17l4.08,7.17,2.53,4.29c-1.69.74-3.95,1.76-6.29,2.81-2.45,1.1-4.95,2.23-6.67,2.97l-5.09-8.57-5.95-10.63-5.76-10.86c-.7-1.33-1.41-2.66-2.12-3.98-1.17-2.19-2.39-4.45-3.5-6.66-1.27-2.7-2.48-5.5-3.65-8.21-.47-1.09-.94-2.17-1.4-3.23-1.31-3.15-2.67-6.4-4.15-9.52-1.53-3.26-2.92-6.57-4.14-9.66l-6.6,1.46c1.13,2.88,2.32,5.81,3.62,8.85Z"/><path d="m226.63,929.28c-.06-.33-.07-.68-.14-1.01-.68-3.33-1.71-6.79-3.35-9.7-1.25-2.25-1.62-5.75-1.62-9.25-.02-2-.03-4.09.2-6.14.36-3.1.56-6.26.68-9.47.07-2.02.17-4.06.19-6.12.04-2.22.07-4.46-.25-6.8-.36-2.4-1.03-4.57-1.58-6.78-.92-3.62-1.92-7.16-3.01-10.66-.58-1.8-1.15-3.55-1.78-5.47-.5-1.59-.93-3.23-1.48-4.78-1.15-3.13-2.4-6.19-3.67-9.24l.03-.02-.75-1.92s-.03-.09-.05-.11c-.26-.28-.5-.77-.81-.79-.46-.04-.98.24-1.47.42-.06.02-.12.18-.17.28-.44.97-.31,1.79.07,2.58.46.97.88,1.99,1.3,3,.74,1.82,1.45,3.65,2.14,5.5.76,2.04,1.51,4.1,2.19,6.18.5,1.66,1.12,3.72,1.59,5.31,1,3.13,1.99,6.26,2.82,9.42.4,1.58.75,3.02,1.19,4.76.35,1.54.86,3.03.99,4.57.13,1.65-.05,3.39-.12,5.09-.08,1.41-.22,2.83-.15,4.26.12,2.49-.09,4.96-.3,7.46-.16,1.91-.41,3.82-.47,5.77-.05,2.45.11,4.92.33,7.4.25,2.36.59,4.85,1.61,7.04.92,1.89,1.5,3.37,2.19,5.21,1.18,3.05,1.47,6.58,1.9,9.98.17,1.26.18,2.55.29,3.82.08.83.19,1.9.3,2.97.02.21.11.42.16.62.17-.13.43-.24.5-.43.45-1.26,1.16-2.48,1.04-3.97-.02-.22-.03-.46.01-.67.32-1.55.22-3.12-.03-4.67-.18-1.21-.33-2.44-.54-3.66Z"/><path d="m209.88,947.51c-.17-.11-.34-.24-.5-.36-.65-.49-1.53-1.15-2.76-1.24-1.22-.55-2.43-.61-3.44-.62-.7,0-1.39-.04-2.04-.11l-.11-.02c-.2-.04-.4-.08-.58-.09l-6.22-.5-6.87-.9c-.43-.08-.86-.15-1.29-.21-.86-.13-1.67-.26-2.47-.48-1.75-.44-3.65-.86-5.99-1.33-.97-.19-2.24-.46-3.47-.85l-3.87-1.22c-.63-.21-1.27-.39-1.91-.58-.77-.22-1.49-.43-2.12-.65-2.59-1.07-4.53-1.96-6.35-2.93-1.03-.51-2.11-1.07-3.15-1.72-.49-.3-.97-.63-1.44-.96-.4-.28-.8-.55-1.26-.85-1.71-1.02-3.35-2.09-4.89-3.17l-1.25-1.03-.39-.39-.56-.13c-.33-.13-1.11-.42-2.02-.07-.52.2-.94.51-1.27.75-.11.08-.22.16-.33.23-.7.45-.88,1.14-.95,1.39-.42,1.53.09,2.92,1.38,3.81l1.85,1.31c.82.6,1.66,1.16,2.48,1.69.33.22.66.43,1.05.7l1.1.68c.93.58,1.86,1.16,2.76,1.67.33.2.65.4.97.61.76.49,1.56.99,2.37,1.38,1.86,1,3.79,1.82,5.66,2.62l.65.28c1.01.43,2.12.84,3.42,1.25.68.2,1.35.35,1.99.49.44.1.89.2,1.28.3.55.16,1.12.38,1.72.62.48.19.95.38,1.4.53,1.01.37,2.11.72,3.3.81,1.17.08,2.33.35,3.56.64l.96.22c.47.1.93.21,1.4.32.74.18,1.51.36,2.28.49,1.19.21,2.35.3,3.49.38.44.03.87.07,1.27.1.92.1,1.84.25,2.81.42.49.08.99.17,1.54.25l.82.11c1.12.15,2.27.3,3.47.28,1.03-.01,2.07.09,3.17.2,1.19.12,2.42.24,3.65.21.4,0,.79.03,1.19.06.44.03.87.06,1.32.07.04,0,.08,0,.12,0,.59,0,1.16-.04,1.71-.08l.29-.02c.43-.03.76-.17.94-.25l2.14-.77-1.02-2.03c-.11-.29-.35-.89-.99-1.3Z"/><path d="m290.59,933.54c1.39-.78,2.79-1.54,4.15-2.38,1.32-.85,2.62-1.75,3.99-2.52,1.44-.78,2.96-1.4,4.43-2.11,1.22-.56,2.46-1.09,3.58-1.81,1.94-1.25,3.99-2.29,6.11-3.19,1.61-.71,3.26-1.33,4.85-2.08,1.97-.98,3.94-1.95,5.95-2.85,1.93-.83,3.9-1.59,5.87-2.33,1.81-.66,3.67-1.21,5.4-2.02,2.97-1.42,6.14-2.22,9.22-3.31,1.17-.38,2.27-.75,3.43-1.12.88-.32,1.74-.69,2.61-1.06.18-.08.34-.22.51-.34-.18-.12-.34-.34-.53-.36-1.23-.08-2.46-.47-3.73-.02-.19.07-.39.13-.59.13-1.42.02-2.75.43-4.08.92-1.03.38-2.09.7-3.14,1.03-.29.1-.58.16-.87.27l-8.61,3.27c-3.2,1.25-6.34,2.63-9.51,3.94-1.81.73-3.53,1.71-5.36,2.4-2.76,1.06-5.4,2.34-7.99,3.76-1.71.88-3.32,1.7-4.95,2.53-1.78.93-3.52,1.84-5.32,2.78-1.87.99-3.6,2.25-5.45,3.28-3.05,1.68-6.05,3.46-9.05,5.25-1.55.97-3.06,1.92-4.67,2.94-1.34.87-2.76,1.62-4.06,2.55-2.63,1.91-5.2,3.9-7.67,6.06l-.02-.02-1.55,1.32s-.07.05-.09.08c-.21.36-.59.77-.57,1.1.03.5.33.99.56,1.45.03.06.17.07.26.09.87.18,1.49-.18,2.12-.78.74-.75,1.56-1.44,2.37-2.13,1.47-1.21,2.96-2.41,4.51-3.51,1.69-1.26,3.43-2.46,5.21-3.6,1.47-.99,3.06-1.78,4.55-2.73,2.68-1.68,5.41-3.3,8.14-4.89Z"/><path d="m364.8,933.38c-1.04-.41-2.01-1.12-3.21-1.03-.18.01-.37.02-.54-.03-1.23-.36-2.48-.33-3.74-.22-1.02.07-1.97.13-2.96.19-.24,0-.57.02-.81.03-2.73.3-5.47.52-8.2.89-3.04.45-6.09.81-9.11,1.35-1.72.31-3.43.72-5.17.92-2.63.29-5.18.97-7.74,1.57-1.68.42-3.25.81-4.83,1.2-1.74.43-3.5.74-5.21,1.26-1.73.54-3.72,1.16-5.42,1.69-2.99.87-6,1.66-8.98,2.59-1.55.49-3.06.97-4.7,1.48-1.37.41-2.76.75-4.09,1.24-2.72.98-5.38,2.14-8.04,3.33v-.03s-1.68.71-1.68.71c-.03.02-.07.03-.1.05-.27.27-.69.5-.75.82-.09.48.06,1.02.14,1.52.01.07.13.13.21.17.72.46,1.38.35,2.07-.01.84-.44,1.71-.85,2.59-1.22,1.56-.69,3.15-1.31,4.74-1.94,1.78-.64,3.54-1.33,5.34-1.89,1.45-.42,3.16-.92,4.56-1.32,2.7-.84,5.4-1.69,8.13-2.45,1.37-.4,2.63-.76,4.1-1.19,1.34-.42,2.63-1.02,3.98-1.4,1.41-.37,2.87-.53,4.3-.83,1.17-.24,2.36-.47,3.47-.87,1.95-.68,3.96-1.09,5.97-1.49,1.54-.32,3.11-.42,4.65-.74,1.93-.36,3.82-.96,5.76-1.24,1.85-.29,3.73-.47,5.59-.7,1.7-.24,3.44-.23,5.12-.55,2.88-.54,5.8-.55,8.71-.75,1.11-.05,2.13-.1,3.21-.15.83-.07,1.66-.2,2.49-.32.18-.03.35-.12.52-.19-.12-.17-.21-.42-.38-.49Z"/><path class="cls-5" d="m255.46,250.44c-3.4,3.49-6.91,6.84-10.43,10.11-17.1,15.89-29.01,20.39-44.54,20.39-2.2,0-4.49-.1-6.86-.26,1.49,7.03,3,14.56,4.42,22.4,1.06.09,1.96.09,2.64-.04,1.14-.21,3.63-.58,7.09-1.08,11.82-1.74,22.83-3.5,33.05-5.29,4.29-7.22,8.95-14.96,14-23.27-1.53-4.98-.66-12.79.64-22.96Z"/><path class="cls-2" d="m129.42,141.52c0-.94,0-1.86,0-2.77-2.67-4.91-6.01-12.51-9.16-22.21-5.12-15.73-7.41-29.96-5.71-35.41.54-1.73,1.04-3.58,1.58-5.54,4.08-14.99,10.25-37.65,48.58-61.11,6.8-4.16,25.61-6.7,47.91-6.47,21.38.22,40.65,3.09,46.87,6.96,3.08,1.92,5.98,3.64,8.79,5.31,12.8,7.6,22.04,13.08,28.65,25.5,25.82,48.5,30.83,67.82,29.88,71.25-1.51,5.43-9.08,17.89-15.54,27.87,2.11,1.91,3.47,4.82,4.25,8.14,6.53-9.87,16.87-26.23,19-33.86,1.05-3.77.75-11.45-10.97-37.6-7.31-16.29-16.11-33.1-19.55-39.56-7.66-14.39-18.24-20.67-31.63-28.62-2.77-1.65-5.64-3.35-8.64-5.22C254.52,2.45,231.34.21,212.7.01c-9.15-.09-39.96.17-52.17,7.65h0c-41.03,25.12-47.97,50.6-52.12,65.83-.51,1.89-1,3.67-1.5,5.26-4.31,13.79,7.73,50.14,15.89,64.57.28.5.56.97.84,1.43,1.24-1.44,3.21-2.49,5.77-3.24Z"/><path class="cls-2" d="m129.45,148.94c-.12.08-.22.17-.31.25-.02.73-.04,1.44-.07,2.13.14.1.27.19.41.28-.01-.9-.02-1.78-.03-2.66Z"/><path class="cls-5" d="m272.19,160.99c.04,3.87-.54,7.66-3.57,10.89-5.01,5.35-15.7,7.63-35.76,7.63-35.05,0-35.13-17.74-35.17-25.31,0-.29,0-.56,0-.82-.5-.03-1.02-.06-1.58-.09l.52,47.7s-18.34,4.04-20.21-2.99c-1.33-4.99,10.73-32.12,16.57-44.8-2.68-.04-5.72-.01-8.72.07.43,4.01.19,10.08-3.66,15.36-4.72,6.46-13.32,9.74-25.56,9.74-6.85,0-12.26-.3-16.6-.97.47,6.96,1.16,13.34,2.13,18.31,2.31,11.84,10.54,31.07,20,46.77,10.84,17.98,21.9,29.15,29.58,29.88,19.46,1.85,30.63-.2,49.45-17.68,17.4-16.16,34.57-34.26,36.85-61.98l.79-9.58,6.02,7.07c.36.29,2.45,1.8,6.99,1.8,3.9-.11,16.9-16.08,17.96-26.96.77-7.85-.93-13.38-2.45-14.34-.35-.22-1.23.27-1.5.43-2.94,1.74-5.69,5.9-7.69,8.95-2.53,3.84-4.36,6.61-7.69,6.26-.87-.09-3.01-.61-4.1-3.39-.35-.9-.59-2.35-.76-4.16-3.3,1.23-7.22,2.1-11.83,2.2Zm-40.48,60.68c-1.47,2.55-3.63,3.45-6.2,3.45-3.01,0-6.59-1.23-10.27-2.5-4.86-1.67-10.37-3.58-15.93-3.52-4.28.04-8.98,1.33-13.13,2.47-6.32,1.73-11.32,3.1-14.36.25-2.51-2.35-2.06-6.23-1.5-8.96.28-1.35,1.6-2.23,2.95-1.95,1.35.28,2.23,1.6,1.95,2.95-.58,2.84-.26,4.04.02,4.31,1.01.94,6.19-.48,9.62-1.42,4.44-1.22,9.47-2.6,14.41-2.65.09,0,.18,0,.27,0,6.32,0,12.42,2.1,17.34,3.79,6.38,2.2,9.5,3.04,10.52,1.29.69-1.2,2.22-1.61,3.41-.92,1.2.69,1.61,2.22.92,3.41Z"/><path class="cls-5" d="m174.91,164.56c4.19-5.69,1.84-13.48,1.82-13.56l-.58-1.87c-1.48-.98-5.46-2.26-14.56-2.26-1.43,0-3.14-.03-5.04-.06-3.83-.06-12.47-.21-19.11.37.05,7.34.21,15.35.57,23.05,4.09.78,9.69,1.15,17.01,1.15,9.86,0,16.54-2.3,19.88-6.83Zm-33.97-5.99c5.08-7.87,16.06-13.3,25.07-8.94,3.02,1.53,5.32,4.26,6.58,7.27.13.32.19.65.18.98.3.68.47,1.4.47,2.15,0,3.72-4,6.74-8.94,6.74s-8.94-3.02-8.94-6.74c0-2.18,1.39-4.12,3.52-5.35-.54.04-1.09.11-1.66.22-4.5.84-9.1,3.5-12.51,6.59-1.99,2.04-5.25-.5-3.79-2.92Z"/><path class="cls-5" d="m156.68,139.81c1.85.03,3.52.06,4.92.06,7.9,0,18.2.73,21.35,6.45,4.62-.16,11.91-.29,16.87.25.14-.16.26-.32.41-.47,5.32-5.51,19.15-8.69,36.07-8.26,3.78.09,7.21.1,10.24.11,15,.03,24.96.07,25.24,13.98,4.02.05,8.06-.35,11.94-1.03-.01-6.43.35-13.86.65-18.92-4.34-3.1-14.88-11.41-24.02-24.94-1.41-2.09-2.7-4.01-3.88-5.77-8.95-13.33-11.65-17.35-18.49-22.39-1.02-.75-2.12-1.6-3.31-2.52-8.29-6.42-19.65-15.2-30.81-11.17-4.83,1.75-10.76,11.08-16.5,20.1-10.1,15.89-21.55,33.9-38.85,35.34-4.56.38-8.41,1.1-10.85,1.63-.08,3.59-.21,10.08-.23,17.92,5.44-.48,12.03-.47,19.24-.35Zm56.11-16c7.68-.52,20.38-.39,30.58-.29,3.87.04,7.37.07,10.08.07h0c1.38,0,2.5,1.12,2.5,2.5,0,1.38-1.11,2.5-2.49,2.5-2.73,0-6.25-.03-10.14-.07-10.11-.1-22.7-.23-30.19.28-.06,0-.11,0-.17,0-1.3,0-2.4-1.01-2.49-2.33-.09-1.38.95-2.57,2.33-2.66Zm-68.98,6.44c-1.35,0-2.46-1.07-2.5-2.42-.04-1.38,1.04-2.53,2.42-2.58,2.16-.07,5.02-.21,8.05-.36,8.21-.41,18.43-.91,24.8-.47,1.38.1,2.42,1.29,2.32,2.67s-1.29,2.4-2.67,2.32c-6.07-.42-16.12.07-24.2.47-3.05.15-5.94.29-8.15.36-.03,0-.05,0-.08,0Z"/><path class="cls-5" d="m232.86,172.51c17.22,0,27.24-1.77,30.65-5.41,1.91-2.04,1.82-4.88,1.5-9.71-.1-1.58-.21-3.21-.22-4.94-.02-6.91-1.38-7.47-18.27-7.51-3.06,0-6.54-.01-10.39-.11-.95-.02-1.89-.04-2.8-.04-15.17,0-25.11,3.11-28.07,6.16-.4.41-.63.81-.62,1.05.04.63.04,1.36.05,2.17.03,6.86.08,18.34,28.17,18.34Zm-23.93-13.37c6.43-8.98,19.01-14.82,29.71-9.96,3.65,1.72,6.44,4.68,8.22,7.86.5.89.46,1.93,0,2.77-.45,4.55-4.9,8.13-10.33,8.13-5.73,0-10.37-3.98-10.37-8.89,0-1.4.39-2.73,1.07-3.91-5.09,1.05-10.17,3.96-13.89,7.54-2.42,2.49-6.32-.66-4.41-3.54Z"/><path class="cls-3" d="m176.41,198.01c1.87,7.03,20.21,2.99,20.21,2.99l-.52-47.7c-.96-.04-2.01-.07-3.13-.09-5.84,12.68-17.89,39.81-16.57,44.8Z"/><path d="m212.95,128.8c.06,0,.11,0,.17,0,7.49-.5,20.08-.38,30.19-.28,3.89.04,7.41.07,10.14.07,1.38,0,2.5-1.12,2.49-2.5,0-1.38-1.12-2.5-2.5-2.5h0c-2.71,0-6.22-.03-10.08-.07-10.2-.1-22.89-.23-30.58.29-1.38.09-2.42,1.28-2.33,2.66.09,1.32,1.19,2.33,2.49,2.33Z"/><path d="m176.24,129.41c1.37.08,2.57-.94,2.67-2.32s-.94-2.57-2.32-2.67c-6.37-.44-16.59.06-24.8.47-3.03.15-5.89.29-8.05.36-1.38.04-2.46,1.2-2.42,2.58.04,1.35,1.15,2.42,2.5,2.42.03,0,.05,0,.08,0,2.21-.07,5.09-.21,8.15-.36,8.08-.4,18.13-.9,24.2-.47Z"/><path d="m230.79,218.26c-1.2-.69-2.73-.28-3.41.92-1.01,1.75-4.13.91-10.52-1.29-4.91-1.69-11.01-3.79-17.34-3.79-.09,0-.18,0-.27,0-4.93.05-9.97,1.43-14.41,2.65-3.43.94-8.62,2.37-9.62,1.42-.28-.26-.6-1.46-.02-4.31.28-1.35-.6-2.67-1.95-2.95-1.35-.28-2.67.6-2.95,1.95-.55,2.72-1,6.61,1.5,8.96,3.05,2.85,8.04,1.48,14.36-.25,4.15-1.14,8.85-2.43,13.13-2.47,5.57-.06,11.07,1.85,15.93,3.52,3.69,1.27,7.26,2.5,10.27,2.5,2.57,0,4.74-.9,6.2-3.45.69-1.2.28-2.72-.92-3.41Z"/><path d="m213.33,162.69c3.72-3.58,8.8-6.49,13.89-7.54-.68,1.18-1.07,2.5-1.07,3.91,0,4.91,4.64,8.89,10.37,8.89,5.43,0,9.88-3.58,10.33-8.13.46-.83.5-1.87,0-2.77-1.78-3.17-4.57-6.13-8.22-7.86-10.71-4.86-23.28.97-29.71,9.96-1.91,2.88,1.99,6.03,4.41,3.54Z"/><path d="m158.89,154.67c-2.14,1.23-3.52,3.17-3.52,5.35,0,3.72,4,6.74,8.94,6.74s8.94-3.02,8.94-6.74c0-.75-.17-1.48-.47-2.15,0-.33-.05-.66-.18-.98-1.26-3.01-3.56-5.74-6.58-7.27-9.01-4.36-19.99,1.08-25.07,8.94-1.47,2.42,1.79,4.95,3.79,2.92,3.41-3.09,8.01-5.75,12.51-6.59.57-.11,1.12-.18,1.66-.22Z"/><path class="cls-4" d="m92.24,1655.31c-13.97,5.47-22.7,20.76-23.82,32.38-.11,1.1.7,2.08,1.8,2.18.06,0,.13,0,.19,0,1.02,0,1.89-.77,1.99-1.81,1.02-10.58,9.26-24.33,21.29-29.04,1.03-.4,1.54-1.56,1.13-2.59-.4-1.03-1.56-1.54-2.59-1.13Z"/><path class="cls-4" d="m393.76,1712.6c.48,0,.96-.17,1.34-.52.56-.51,13.65-12.55,13.65-23.62,0-1.1-.9-2-2-2s-2,.9-2,2c0,9.3-12.22,20.55-12.34,20.66-.82.74-.88,2.01-.13,2.83.4.43.94.65,1.48.65Z"/><path class="cls-8" d="m266.08,503.71l31.52,173.83,8.09,4.66,58.58-12.91c4.14-5.6,21.78-29.27,36.96-46.85,6.1-7.07,10.96-16.69,14.67-26.02-16.49-.91-29.62-14.61-29.62-31.32s9.73-29.43,24.07-31.15c-2.67-5.51-5.24-10.44-7.27-13.59-12.73-19.77-27.65-35.35-32.25-39.97l-102.38,17.83-2.38,5.49Z"/><path class="cls-2" d="m262.84,491.08l-5.06,11.67,32.62,179.87,14,8.05,15.07-3.32,6.6-1.46,15.48-3.41,5.92-1.3,13.8-3.04,4.48-.99,3.19-.7.89-1.22c.2-.28,20.43-27.84,37.46-47.57,17.82-20.65,25.45-59.06,25.77-60.69l.23-1.18-.46-1.11c-.62-1.48-15.19-36.5-23.01-48.65-15.71-24.41-34.09-42.08-34.86-42.83l-1.46-1.4-1.98.35-3,.52-105.66,18.4Zm140.24,29.28c2.03,3.15,4.6,8.08,7.27,13.59,1.14-.14,2.31-.22,3.51-.22h.91l.42.81c6.15,11.89,15.2,30.84,15.29,31.03l.21.44-.09.48c-.14.78-3.56,19.29-11.79,29.43l-.45.55h-.71c-.59,0-1.17-.02-1.74-.05-3.71,9.33-8.57,18.96-14.67,26.02-15.18,17.58-32.82,41.25-36.96,46.85l-58.58,12.91-8.09-4.66-31.52-173.83,2.38-5.49,102.38-17.83c4.6,4.62,19.52,20.2,32.25,39.97Z"/><path class="cls-4" d="m416.93,593.46c6.75-8.8,10.06-24.17,10.63-27.04-1.37-2.86-9.03-18.83-14.61-29.67-11.93.42-23.67,9.24-23.67,28.35,0,15.4,12.34,27.98,27.65,28.36Z"/><path d="m386.28,565.1c0,16.71,13.14,30.41,29.62,31.32.58.03,1.16.05,1.74.05h.71l.45-.55c8.23-10.14,11.65-28.65,11.79-29.43l.09-.48-.21-.44c-.09-.19-9.14-19.14-15.29-31.03l-.42-.81h-.91c-1.2,0-2.36.08-3.51.22-14.34,1.73-24.07,14.05-24.07,31.15Zm26.67-28.35c5.58,10.84,13.24,26.81,14.61,29.67-.57,2.87-3.88,18.25-10.63,27.04-15.31-.38-27.65-12.96-27.65-28.36,0-19.11,11.74-27.93,23.67-28.35Z"/><path d="m179.83,465.44c.49-18.07.88-32.36,1.19-41.61l17.15-63.49-8.73-44.15c-.16-.81-.95-1.34-1.76-1.18-.81.16-1.34.95-1.18,1.76l8.59,43.46-17.01,62.98-.05.34c-.31,9.26-.7,23.62-1.2,41.8-1.95,71.29-6,219.64-10.81,229.62-6.13,12.71,14.56,100.88,16.94,110.89.16.69.78,1.15,1.46,1.15.11,0,.23-.01.35-.04.81-.19,1.3-1,1.11-1.81-6.4-26.92-21.95-98.96-17.16-108.9,4.7-9.74,8.2-124.26,11.11-230.84Z"/><path d="m211.68,521.44h.03c.82,0,1.48-.65,1.5-1.47.18-10.13.36-20.03.52-29.46.5-28.8.93-53.69,1.39-66.8l17.32-65.63-5.94-28.65c-.17-.81-.96-1.33-1.77-1.16-.81.17-1.33.96-1.16,1.77l5.8,27.96-17.18,65.11-.05.33c-.46,13.09-.89,38.08-1.39,67.02-.16,9.43-.34,19.33-.52,29.46-.02.83.64,1.51,1.47,1.53Z"/><path class="cls-4" d="m205.9,702.06c.37-.74.08-1.64-.66-2.02-.74-.37-1.64-.08-2.02.66-6.15,12.15,11.92,88.62,14,97.29.17.69.78,1.15,1.46,1.15.12,0,.23-.01.35-.04.81-.19,1.3-1,1.11-1.81-5.58-23.29-19.02-85.79-14.24-95.24Z"/><path d="m288.08,315.2c1.92,1.49,4.01,2.49,6.06,3.02.9,12.1,3.51,50.83,2.75,86.71-.39,18.61,7.31,9.1,7.92-.41.58-9.09,1.44-52.56-1.41-87.97.27-.25.53-.52.76-.82,3.18-4.12,1.15-11.03-4.55-15.43s-12.9-4.64-16.08-.53-1.15,11.03,4.55,15.43Z"/><path d="m169.21,465.12c.01-.83-.65-1.51-1.47-1.53-.39,0-39.69-.63-69.23,3.3-.82.11-1.4.86-1.29,1.69.1.75.74,1.3,1.48,1.3.07,0,.13,0,.2-.01,29.31-3.91,68.39-3.28,68.78-3.28.83,0,1.51-.65,1.53-1.47Z"/><path class="cls-4" d="m227.24,461.87c-.83.03-1.48.72-1.45,1.55s.73,1.5,1.55,1.45c19.77-.7,100.87-.01,107.96,3.21.2.09.41.13.62.13.57,0,1.12-.33,1.37-.88.34-.75,0-1.64-.75-1.99-8.12-3.68-91.41-4.11-109.31-3.47Z"/></g></g></svg>