<svg width="400" height="400" viewBox="0 0 400 400" fill="none" xmlns="http://www.w3.org/2000/svg">
<rect width="400" height="400" fill="white"/>
<path d="M240.5 53L270.5 61L267.5 83L254 94.5L262.5 111.5L260 231.5L231 273.5L226.5 291V309.5L260 302L300 318.5L331 360.5L289 365.5L234.5 356.5L237.5 367.5L247 378.5L139 381.5L88 371.5L36 378.5L44 356.5L34 326.5V293.5L60.5 233.5L118.5 156.5L122.5 143L112.5 129.5L132.5 109L142.5 79V9L192 31L207.5 13L221 38L240.5 53Z" fill="#5177FF"/>
<path d="M259 59.5L289 67.5L286 89.5L272.5 101L281 118L278.5 238L249.5 280L245 297.5V316L278.5 308.5L318.5 325L349.5 367L307.5 372L253 363L256 374L265.5 385L157.5 388L106.5 378L54.5 385L62.5 363L52.5 333V300L79 240L137 163L141 149.5L131 136L151 115.5L161 85.5V15.5L205.5 36.5H211L226 19.5L239.5 44.5L259 59.5Z" fill="#FFA800"/>
<path d="M250 55.5L220.5 40L203 60.5L250 55.5Z" fill="#F1F1F1"/>
<path d="M141 320.5L108 284.5L90 314L116.5 311.5L141 320.5Z" fill="#F1F1F1"/>
<path d="M338.5 363L313.5 331L287 320L283.25 340.25L338.5 363Z" fill="#F1F1F1"/>
<path d="M259.851 239.643L190 260L207.5 163L197.761 110L232.985 118.571L270 114.286L254.478 153.393L259.851 239.643Z" fill="#F1F1F1"/>
<path d="M255.5 383.5L200.5 382.915V357L196 296L218 325.5L227 349V325.5L242 304L248.75 343.75V367L255.5 383.5Z" fill="black"/>
<path d="M114.952 332.75L123.5 357L127.742 366.3L146.5 386L106 378L81 381L91.5 362L96.7097 330L114.952 332.75Z" fill="black"/>
</svg>
