<svg width="400" height="400" viewBox="0 0 400 400" fill="none" xmlns="http://www.w3.org/2000/svg">
<rect width="400" height="400" fill="white"/>
<path d="M248 384H109C107.895 384 107 383.105 107 382V205C107 203.895 107.895 203 109 203H248" stroke="black" stroke-width="10" stroke-linejoin="round"/>
<path d="M107 203.794L127.278 174.852C127.652 174.318 128.263 174 128.916 174H275M275 174H274.876C274.317 174 273.785 174.233 273.406 174.643L247.03 203.219C246.689 203.589 246.5 204.073 246.5 204.576V382.025C246.5 383.969 248.993 384.77 250.125 383.191L274.625 349.023C274.869 348.683 275 348.275 275 347.857V174Z" stroke="black" stroke-width="10" stroke-linejoin="round"/>
<path d="M176.564 177.28V184V147.563C176.564 147.056 176.371 146.567 176.024 146.197L162.36 131.591C161.134 130.281 162.12 128.144 163.912 128.227L192.873 129.564L222.589 128.241C224.445 128.158 225.401 130.431 224.044 131.7L208.561 146.181C208.157 146.559 207.927 147.088 207.927 147.641V184V177.28" stroke="black" stroke-width="10" stroke-linejoin="round"/>
<path d="M184.026 255.595H199.05V265.371C199.05 269.519 195.687 272.882 191.538 272.882V272.882C187.389 272.882 184.026 269.519 184.026 265.371V255.595Z" fill="#5177FF"/>
<path d="M184.026 245.819C184.026 241.67 187.389 238.307 191.538 238.307V238.307C195.687 238.307 199.05 241.67 199.05 245.819V255.595H184.026V245.819Z" fill="#5177FF"/>
<path d="M205.059 247.567H220.082V257.343C220.082 261.491 216.719 264.855 212.571 264.855V264.855C208.422 264.855 205.059 261.491 205.059 257.343V247.567Z" fill="#FFA800"/>
<path d="M205.059 237.791C205.059 233.642 208.422 230.279 212.571 230.279V230.279C216.719 230.279 220.082 233.642 220.082 237.791V247.567H205.059V237.791Z" fill="#FFA800"/>
<path d="M143.587 180.186L144.667 178.354L122.325 212.623C122.113 212.948 122 213.328 122 213.715V384V383.444M179.206 131.667L177.587 130L189.435 142.201C189.797 142.575 190 143.074 190 143.595V183.472V178.459" stroke="#5177FF" stroke-width="10" stroke-linejoin="round"/>
<path d="M242.673 131.439L244 130L222 152.051V184V180.625" stroke="#FFA800" stroke-width="10" stroke-linejoin="round"/>
<path d="M170.102 364.273L167.051 373H164.324L161.273 364.273H163.83L165.642 370.517H165.733L167.54 364.273H170.102ZM171.341 373V364.273H173.761V373H171.341ZM172.557 363.148C172.197 363.148 171.888 363.028 171.631 362.79C171.377 362.547 171.25 362.258 171.25 361.92C171.25 361.587 171.377 361.301 171.631 361.062C171.888 360.82 172.197 360.699 172.557 360.699C172.917 360.699 173.223 360.82 173.477 361.062C173.735 361.301 173.864 361.587 173.864 361.92C173.864 362.258 173.735 362.547 173.477 362.79C173.223 363.028 172.917 363.148 172.557 363.148ZM183.837 364.273L180.786 373H178.058L175.007 364.273H177.564L179.376 370.517H179.467L181.274 364.273H183.837ZM185.075 373V364.273H187.496V373H185.075ZM186.291 363.148C185.931 363.148 185.623 363.028 185.365 362.79C185.111 362.547 184.984 362.258 184.984 361.92C184.984 361.587 185.111 361.301 185.365 361.062C185.623 360.82 185.931 360.699 186.291 360.699C186.651 360.699 186.958 360.82 187.212 361.062C187.469 361.301 187.598 361.587 187.598 361.92C187.598 362.258 187.469 362.547 187.212 362.79C186.958 363.028 186.651 363.148 186.291 363.148ZM192.651 373.142C191.988 373.142 191.387 372.972 190.849 372.631C190.315 372.286 189.891 371.78 189.577 371.114C189.266 370.443 189.111 369.621 189.111 368.648C189.111 367.648 189.272 366.816 189.594 366.153C189.916 365.487 190.344 364.989 190.878 364.659C191.416 364.326 192.005 364.159 192.645 364.159C193.134 364.159 193.541 364.242 193.866 364.409C194.196 364.572 194.461 364.777 194.662 365.023C194.866 365.265 195.022 365.504 195.128 365.739H195.202V361.364H197.616V373H195.23V371.602H195.128C195.014 371.845 194.853 372.085 194.645 372.324C194.44 372.559 194.173 372.754 193.844 372.909C193.518 373.064 193.12 373.142 192.651 373.142ZM193.418 371.216C193.808 371.216 194.137 371.11 194.406 370.898C194.679 370.682 194.887 370.381 195.031 369.994C195.179 369.608 195.253 369.155 195.253 368.636C195.253 368.117 195.181 367.667 195.037 367.284C194.893 366.902 194.685 366.606 194.412 366.398C194.139 366.189 193.808 366.085 193.418 366.085C193.02 366.085 192.685 366.193 192.412 366.409C192.139 366.625 191.933 366.924 191.793 367.307C191.652 367.689 191.582 368.133 191.582 368.636C191.582 369.144 191.652 369.593 191.793 369.983C191.937 370.369 192.143 370.672 192.412 370.892C192.685 371.108 193.02 371.216 193.418 371.216ZM199.607 376.273V364.273H201.993V365.739H202.101C202.207 365.504 202.36 365.265 202.561 365.023C202.766 364.777 203.031 364.572 203.357 364.409C203.686 364.242 204.095 364.159 204.584 364.159C205.22 364.159 205.807 364.326 206.345 364.659C206.883 364.989 207.313 365.487 207.635 366.153C207.957 366.816 208.118 367.648 208.118 368.648C208.118 369.621 207.961 370.443 207.646 371.114C207.336 371.78 206.911 372.286 206.374 372.631C205.839 372.972 205.241 373.142 204.578 373.142C204.108 373.142 203.709 373.064 203.379 372.909C203.054 372.754 202.786 372.559 202.578 372.324C202.37 372.085 202.211 371.845 202.101 371.602H202.027V376.273H199.607ZM201.976 368.636C201.976 369.155 202.048 369.608 202.192 369.994C202.336 370.381 202.544 370.682 202.817 370.898C203.089 371.11 203.421 371.216 203.811 371.216C204.205 371.216 204.538 371.108 204.811 370.892C205.084 370.672 205.29 370.369 205.43 369.983C205.574 369.593 205.646 369.144 205.646 368.636C205.646 368.133 205.576 367.689 205.436 367.307C205.296 366.924 205.089 366.625 204.817 366.409C204.544 366.193 204.209 366.085 203.811 366.085C203.417 366.085 203.084 366.189 202.811 366.398C202.542 366.606 202.336 366.902 202.192 367.284C202.048 367.667 201.976 368.117 201.976 368.636ZM212.152 361.364V373H209.732V361.364H212.152ZM216.58 373.165C216.023 373.165 215.527 373.068 215.091 372.875C214.655 372.678 214.311 372.388 214.057 372.006C213.807 371.619 213.682 371.138 213.682 370.562C213.682 370.078 213.771 369.67 213.949 369.341C214.127 369.011 214.369 368.746 214.676 368.545C214.983 368.345 215.331 368.193 215.722 368.091C216.116 367.989 216.528 367.917 216.96 367.875C217.468 367.822 217.877 367.773 218.188 367.727C218.498 367.678 218.723 367.606 218.864 367.511C219.004 367.417 219.074 367.277 219.074 367.091V367.057C219.074 366.697 218.96 366.419 218.733 366.222C218.509 366.025 218.191 365.926 217.778 365.926C217.343 365.926 216.996 366.023 216.739 366.216C216.481 366.405 216.311 366.644 216.227 366.932L213.989 366.75C214.102 366.22 214.326 365.761 214.659 365.375C214.992 364.985 215.422 364.686 215.949 364.477C216.479 364.265 217.093 364.159 217.79 364.159C218.275 364.159 218.739 364.216 219.182 364.33C219.629 364.443 220.025 364.619 220.369 364.858C220.718 365.097 220.992 365.403 221.193 365.778C221.394 366.15 221.494 366.595 221.494 367.114V373H219.199V371.79H219.131C218.991 372.062 218.803 372.303 218.568 372.511C218.333 372.716 218.051 372.877 217.722 372.994C217.392 373.108 217.011 373.165 216.58 373.165ZM217.273 371.494C217.629 371.494 217.943 371.424 218.216 371.284C218.489 371.14 218.703 370.947 218.858 370.705C219.013 370.462 219.091 370.187 219.091 369.881V368.955C219.015 369.004 218.911 369.049 218.778 369.091C218.65 369.129 218.504 369.165 218.341 369.199C218.178 369.229 218.015 369.258 217.852 369.284C217.689 369.307 217.542 369.328 217.409 369.347C217.125 369.388 216.877 369.455 216.665 369.545C216.453 369.636 216.288 369.759 216.17 369.915C216.053 370.066 215.994 370.256 215.994 370.483C215.994 370.812 216.114 371.064 216.352 371.239C216.595 371.409 216.902 371.494 217.273 371.494ZM225.793 367.955V373H223.372V364.273H225.679V365.812H225.781C225.974 365.305 226.298 364.903 226.753 364.608C227.207 364.309 227.759 364.159 228.406 364.159C229.012 364.159 229.541 364.292 229.991 364.557C230.442 364.822 230.793 365.201 231.043 365.693C231.293 366.182 231.418 366.765 231.418 367.443V373H228.997V367.875C229.001 367.341 228.865 366.924 228.588 366.625C228.312 366.322 227.931 366.17 227.446 366.17C227.12 366.17 226.832 366.241 226.582 366.381C226.336 366.521 226.143 366.725 226.003 366.994C225.866 367.259 225.796 367.58 225.793 367.955ZM237.967 364.273V366.091H232.712V364.273H237.967ZM233.905 362.182H236.325V370.318C236.325 370.542 236.359 370.716 236.428 370.841C236.496 370.962 236.59 371.047 236.712 371.097C236.837 371.146 236.981 371.17 237.143 371.17C237.257 371.17 237.371 371.161 237.484 371.142C237.598 371.119 237.685 371.102 237.746 371.091L238.126 372.892C238.005 372.93 237.835 372.973 237.615 373.023C237.395 373.076 237.128 373.108 236.814 373.119C236.231 373.142 235.719 373.064 235.28 372.886C234.844 372.708 234.505 372.432 234.263 372.057C234.02 371.682 233.901 371.208 233.905 370.636V362.182Z" fill="black"/>
<path d="M262.22 67.5294C270.376 49.2975 291.768 41.1298 310 49.2863V49.2863V49.2863C301.843 67.5182 280.452 75.6859 262.22 67.5294V67.5294V67.5294Z" fill="#FFA800"/>
<path d="M236.594 99.4965C248.237 83.2673 270.831 79.5488 287.06 91.1909V91.1909V91.1909C275.418 107.42 252.824 111.139 236.594 99.4965V99.4965V99.4965Z" fill="black"/>
<path d="M242.444 26.662C228.741 41.1935 229.413 64.0818 243.944 77.7846V77.7846V77.7846C257.647 63.2531 256.975 40.3648 242.444 26.662V26.662V26.662Z" fill="black"/>
<path d="M289.5 347.857V174.695C289.5 174.311 289.189 174 288.805 174C288.61 174 288.425 174.081 288.293 174.224L261.53 203.219C261.189 203.589 261 204.073 261 204.576V382.025C261 383.969 263.493 384.77 264.625 383.191L289.125 349.023C289.369 348.683 289.5 348.275 289.5 347.857Z" stroke="#FFA800" stroke-width="10" stroke-linejoin="round"/>
</svg>
